/* XPM */
static char * duff_xpm[] = {
"64 64 256 2",
"  	c #FFFFFF",
". 	c #787878",
"+ 	c #E62B30",
"@ 	c #B5B5B5",
"# 	c #C2A182",
"$ 	c #B6B6B6",
"% 	c #271C1B",
"& 	c #B4B4B4",
"* 	c #E52B30",
"= 	c #000000",
"- 	c #E72B30",
"; 	c #FEFFFE",
"> 	c #261B1A",
", 	c #797979",
"' 	c #919192",
") 	c #C3A283",
"! 	c #E42A2F",
"~ 	c #A5A6A6",
"{ 	c #E92C31",
"] 	c #FEFEFD",
"^ 	c #231A17",
"/ 	c #FCFCFC",
"( 	c #BC2226",
"_ 	c #FAFAFA",
": 	c #B29477",
"< 	c #969696",
"[ 	c #CF272B",
"} 	c #412C2D",
"| 	c #E1292E",
"1 	c #3D362F",
"2 	c #8D1A1D",
"3 	c #B82226",
"4 	c #B7B7B8",
"5 	c #0D0D0D",
"6 	c #F8F8F8",
"7 	c #030202",
"8 	c #251A19",
"9 	c #060505",
"0 	c #767676",
"a 	c #737373",
"b 	c #F6F6F6",
"c 	c #6E6E6E",
"d 	c #3F3F3E",
"e 	c #DE292E",
"f 	c #9A9999",
"g 	c #A2A2A2",
"h 	c #959B9B",
"i 	c #AAAAAA",
"j 	c #C1A082",
"k 	c #EDECEC",
"l 	c #A8A8A8",
"m 	c #6A6A6A",
"n 	c #83191B",
"o 	c #424242",
"p 	c #B3B3B3",
"q 	c #838383",
"r 	c #9E1D21",
"s 	c #595959",
"t 	c #F2F1F1",
"u 	c #D9D9D9",
"v 	c #C4C4C4",
"w 	c #DC292E",
"x 	c #717070",
"y 	c #CB262A",
"z 	c #E3E2E3",
"A 	c #878787",
"B 	c #D3282C",
"C 	c #F4F4F4",
"D 	c #E7E6E6",
"E 	c #4C4C4C",
"F 	c #8A8A8A",
"G 	c #ACACAC",
"H 	c #CACACA",
"I 	c #B0B0B0",
"J 	c #666565",
"K 	c #B2B2B2",
"L 	c #6A6767",
"M 	c #353535",
"N 	c #C42328",
"O 	c #D7D6D6",
"P 	c #464545",
"Q 	c #DCDCDC",
"R 	c #B32024",
"S 	c #C4A383",
"T 	c #292929",
"U 	c #D3D3D3",
"V 	c #2A1E1D",
"W 	c #191919",
"X 	c #BEBEBE",
"Y 	c #D0CFCF",
"Z 	c #9D9D9D",
"` 	c #8E8E8E",
" .	c #7A7B7B",
"..	c #9A9D9C",
"+.	c #5D5D5D",
"@.	c #EAE9E9",
"#.	c #2C201F",
"$.	c #0A0808",
"%.	c #A61E22",
"&.	c #495553",
"*.	c #F0EEEF",
"=.	c #281D1C",
"-.	c #505050",
";.	c #626161",
">.	c #D8282D",
",.	c #555555",
"'.	c #CFCCCC",
").	c #151413",
"!.	c #989897",
"~.	c #383838",
"{.	c #E0DFDF",
"].	c #6C1517",
"^.	c #BBBABA",
"/.	c #A1A1A1",
"(.	c #3C3C3C",
"_.	c #0A0202",
":.	c #483C3D",
"<.	c #494948",
"[.	c #C2C0C0",
"}.	c #631416",
"|.	c #45231E",
"1.	c #3F3232",
"2.	c #433736",
"3.	c #ADA2A3",
"4.	c #7D7D7D",
"5.	c #731719",
"6.	c #501213",
"7.	c #322625",
"8.	c #313131",
"9.	c #7B181A",
"0.	c #AD9074",
"a.	c #932024",
"b.	c #6C5E5F",
"c.	c #C8C7C7",
"d.	c #554848",
"e.	c #A92428",
"f.	c #AC2024",
"g.	c #756768",
"h.	c #3B3A3A",
"i.	c #981D20",
"j.	c #C6282C",
"k.	c #AEAEAE",
"l.	c #5A1315",
"m.	c #3B2E2E",
"n.	c #4F4142",
"o.	c #939393",
"p.	c #2F2322",
"q.	c #655858",
"r.	c #0D1917",
"s.	c #808080",
"t.	c #201F1F",
"u.	c #2D2D2D",
"v.	c #A42A2D",
"w.	c #EAE4E4",
"x.	c #A12326",
"y.	c #FFFFFE",
"z.	c #9A252A",
"A.	c #2F3F3C",
"B.	c #8E8182",
"C.	c #C8C0C0",
"D.	c #909291",
"E.	c #2E0C0D",
"F.	c #5C4E50",
"G.	c #36292A",
"H.	c #7B7070",
"I.	c #B1262B",
"J.	c #847577",
"K.	c #D8D2D3",
"L.	c #8F2C33",
"M.	c #949494",
"N.	c #70383A",
"O.	c #E1DBDC",
"P.	c #C4BABA",
"Q.	c #9A8F90",
"R.	c #C0272B",
"S.	c #D0C2C4",
"T.	c #451918",
"U.	c #BCB3B4",
"V.	c #301B1A",
"W.	c #5D5555",
"X.	c #460E0F",
"Y.	c #A6A3A3",
"Z.	c #712122",
"`.	c #210A0B",
" +	c #535253",
".+	c #A09294",
"++	c #242424",
"@+	c #E6E0E0",
"#+	c #A09F9F",
"$+	c #160707",
"%+	c #3F1F1C",
"&+	c #A49999",
"*+	c #201715",
"=+	c #EFEAEA",
"-+	c #DED7D7",
";+	c #D92A2F",
">+	c #BD9D7E",
",+	c #8B2226",
"'+	c #501C1C",
")+	c #3A0E0F",
"!+	c #BB2529",
"~+	c #1B1B1B",
"{+	c #8A7A7C",
"]+	c #591F20",
"^+	c #631F20",
"/+	c #B2A8A9",
"(+	c #928687",
"_+	c #B82A2F",
":+	c #8D9593",
"<+	c #958B8B",
"[+	c #9E2E34",
"}+	c #B7ADAE",
"|+	c #92626B",
"1+	c #824D54",
"2+	c #391A19",
"3+	c #876F5B",
"4+	c #7E2A34",
"5+	c #A98D72",
"6+	c #704D4D",
"7+	c #DCCDCD",
"8+	c #4D382F",
"9+	c #813E44",
"0+	c #5A453B",
"a+	c #B7997B",
"b+	c #452D26",
"c+	c #766350",
"d+	c #873539",
"e+	c #9E836A",
"f+	c #907761",
"g+	c #802225",
"h+	c #977E66",
"i+	c #945256",
"j+	c #A08589",
"k+	c #655343",
"l+	c #C5A484",
"m+	c #B08A8F",
"n+	c #7E6A56",
"o+	c #8C5962",
"p+	c #81585D",
"q+	c #A3787E",
"r+	c #8F454B",
"s+	c #C6ACAF",
"t+	c #85686D",
"u+	c #D0B3B5",
"v+	c #BB5F61",
"w+	c #6E5C4A",
"x+	c #A5886E",
"y+	c #B29498",
"z+	c #A06B6E",
"A+	c #DDBFC1",
"B+	c #BCA6A9",
"C+	c #BF4E52",
"D+	c #BBB6B6",
"E+	c #BC9CA0",
"F+	c #DA393F",
"G+	c #AC3F43",
"m F F F F s. . . . . . . . . . . .q F F F F F F F F F F F F F F F F F F F F F F F F F F F F q  . . . . . . . . . . .s.F F F F a ",
"` @ @ @ @ @ @ @ @ @ @ @ @ @ @ @ @ @ @ @ @ @ @ @ @ @ @ @ @ @ @ @ @ @ @ @ @ @ @ @ @ @ @ @ @ @ @ @ @ @ @ @ @ @ @ @ @ @ @ @ @ @ @ ` ",
"` & & & & & & & & & & & & & & & & & & & & & & & & & & & & & & & & & & & & & & & & & & & & & & & & & & & & & & & & & & & & & & ` ",
"` & & & & & & & & & & & & & & & & & & & & & & & & & & & & & & & & & & & & & & & & & & & & & & & & & & & & & & & & & & & & & & ` ",
"F I I I I I I I I I I I I I I I I I I I I I I I I I I I I I I I I I I I I I I I I I I I I I I I I I I I I I I I I I I I I I I F ",
"q.H.H.H.H.H.H.H.H.H.H.H.H.H.H.H.H.H.H.H.H.H.H.H.H.H.H.H.H.H.H.H.H.H.H.H.H.H.H.H.H.H.H.H.H.H.H.H.H.H.H.H.H.H.H.H.H.H.H.H.H.H.H.q.",
"h+# j j j j j j j j j j j j j j j j j j j j j j j j j j j j j j j j j j j j j j j j j j j j j j j j j j j j j j j j j j j j # h+",
"h+# # # # # # # # # # # # # # # # # # # # # # # # # # # # # # j j # # # # # # # # # # # # # # # # # # # # # # # # # # # # # # h+",
"h+# # # # # # # # # # # # # # # # # # # # # # # # # # # # : n+r+r+3+a+# # # # # # # # # # # # # # # # # # # # # # # # # # # # h+",
"h+# # # # # # # # # # # # # # # # # # # # # # # # # # # : d+B | | [ 9+: # # # # # # # # # # # # # # # # # # # # # # # # # # # h+",
"h+j # # # # # # # # # # # # # # # # # # # # # # # # # # k+B * * * * y w+) # # # # # # # # # # # # # # # # # # # # # # # # # j h+",
"N.i+f+e+0.a+j ) ) # # # # # # # # # # # # # # # # # # j N.e * * * * w N.j # # # # # # # # # # # # # # # # # # ) # >+a+5+h+3+i+N.",
"R e B N I.[+r+c+3+e+5+a+j ) # # # # # # # # # # # # # ) w+B * * * * y c+) # # # # # # # # # # # # ) # >+: 5+h+n+1+r+[+I.y >.| R ",
"R * * * * * * | >.N I.[+d+c+3+e+5+a+>+j # # # # # # # # : d+[ ! ! [ N.a+# # # # # # # # j >+: x+h+3+1+d+v.!+j.w | * * * * * * R ",
"R * * * * * * * * * * + * | B N 3 z.d+i+3+f+x+: a+>+j ) ) a+3+r+r+3+a+) # j >+a+0.e+f+3+r+d+x.3 y >.! + * * * * * * * * * * * R ",
"R * * * * * * * * * * * * * * * * + * | >.[ ( e.[+r+r+n+3+h+x+0.0.x+h+3+c+r+[+[+I.N [ >.| + + * * * * * * * * * * * * * * * * R ",
"R * * * * * * * * * * * * * * * * * * * * * * * * * | e >.y !+I.I.R.y >.e | * * * * * * * * * * * * * * * * * * * * * * * * * R ",
"R * * * * * * * * * * * * * | y !+B * * * * * * * * * * * * * * * * * * * * * * * * * * * * * ! w e * * * * * * * * * * * * * R ",
"R * * * * * * * * * * * * | x.T.V ]+N * * | [ N B * * * * * * * * * * * * * * * * * * * * | j.a.^+5.[ * * * * * * * * * * * * R ",
"R * * * * * * * * * * * * R.%+% % % n | | r '+V.}.y * * * * * * * * * * * * * * * * * * >.z.|.=.% 2+N * * * * * * * * * * * * R ",
"R * * * * * * * * y I._+_+Z.> V =.% l.j.e.2+% % % 2 >.w w w w w w e | | | | ! ! ! * ! j.Z.V.% % % V.( * * * * * * * * * * * * R ",
"R * * * * * * * ! z.U.K.K.}+H.D+b.> m.j+n.% % % % %+q+m+m+m+j+m+j+q+q+q+q+z+z+v+v+G+z.'+% % % % > =.,+_+R.j.w * * * * * * * * R ",
"R * * * * * * * | L.O.    ; 6 / J.> :.D g.% p.=.% 1.{.] ] ] / / / _ _ _ _ 6 b C t P.m.8 > 8 =.% % % <+7+7+y+( * * * * * * * * R ",
"R * * * * * * * | L.@+        _ ;.> n.k C.J.}+V % G.O.                          z F.^ ^ p.(+@ p.% % /+    S.I.* * * * * * * * R ",
"R * * * * * * * ! r+=+        t :.> d.k ; / O V % 7.O                         _ (+8 ^ =.#+_ w.1.> > Y.    S.e.* * * * * * * * R ",
"R * * * * * * * ! r+k         *.2.> d.*.    '.V % G.O                         H 7.8 > 4.6   =+:.> 8 Z     -+v.* * * * * * * * R ",
"R * * * * * * * ! r+k         @.m.> F.C     C.V % m.Q                       _ q ^ 8 G.K.    t n.8 8 <+    @+[+! * * * * * * * R ",
"R * * * * * * * ! r+k         -+7.> F.C     P.V % m.{.                      @.d.> ^ g.6     C F.^ ^ J.;   =+[+| * * * * * * * R ",
"R * * * * * * * ! r+k   ; ;   O #.> W.C     P.> % 1.z                       '.7.% > I       b F.> 8 H.]   t r+| * * * * * * * R ",
"R * * * * * * * ! r+@.  _ ^.p Y.V > W.C     U.8 % 2.D                       /+V % G.u       6 q.% > b./   b i+| * * * * * * * R ",
"R * * * * * * * ! [+z   =+d.#.p.% > F.t     }+^ % :.@.                    ] (+8 % :.D       6 b.% > q.6   _ z+e * * * * * * * R ",
"R * * * * * * * ! L.{.  _ .+G.% % % G..+K.t /+^ % :.k     ; _ ]       / ] / J.8 % d.t       6 b.> % b./   ; q+;+* * * * * * * R ",
"R * * * * * * * * [+O.; y.b P.W.8 % % > m.b.q.> % :.k   ; '.4.Y.6   z Q.Y.k J.8 % n.*.      6 q.> > g./   ; q+>.* * * * * * * R ",
"R * * * * * * * * [+-+      ; /+^ % % % % % % % % :.D   ] .+^ 2.{.  U.#.% P.B.8 % 2.z       b q.> > g./   ; q+>.* * * * * * * R ",
"R * * * * * * * * [+-+        P.8 % 7.g.n.G.% % % > H.H C Q.^ 7.K.  /+V ^ /+3.> % 7.Y       C F.% > L /   ; q+>.* * * * * * * R ",
"R * * * * * * * * [+K.        C.> % :.D D [.J.=.> $.= #.&+Q.^ #.'.  3.V ^ p K.G.% > &+      C d.% % b._   ; q+>.* * * * * * * R ",
"R * * * * * * * * v.K.        c.=.> n.k     O p.% % m.G.Q..+^ V D+  Q.% ^ p *.W.> > W.t     C d.% % q.6   ; q+;+* * * * * * * R ",
"R * * * * * * * * [+K.        H V > F.t     u p.> :.K.{.b &+^ % 3.; J.% 8 X / .+8 % p.[.    C d.% % q._   ; q+;+* * * * * * * R ",
"R * * * * * * * * v.U         H V 8 q.b     O #.> d.t   ; /+^ % q.3.:.% > c.  O.d.% % b.k   t n.% % b./   ; q+>.* * * * * * * R ",
"R * * * * * * * * v.Y         c.% 8 b.b     O V > d.t     -+1.% % 8 % % m.@+  ] 3.#.8 *+B.C t d.% % L ]   ; q+>.* * * * * * * R ",
"R * * * * * * * * v.'.        H % 8 b.Q 3.O O p.> d.@.c.{._ 3.m.% % % 1.k.]     t J.V 9 V B.P.1.% % g.]     q+>.* * * * * * * R ",
"R * * * * * * * * v.'.        O #.8 n.H.#.x u G.> :..+G.F.D 6 c.A 4.Q.Y /         @.g.$.).% V % % > . ]     q+B * * * * * * * R ",
"R * * * * * * * ! e.3.7+7+7+7+U.7.5 > > 8 L K.n.% =.#.% 7.Y 6 _ b C 6 _ _ / / ] / ] @+g.5 > % % % > 0 ]     q+[ * * * * * * * R ",
"R * * * * * * * * >._+_+_+j.j._+Z.5 *+% T.L.G+g+V.=.% % %+i+z+z+z+z+z+z+q+q+q+j+j+j+m+o+|.V % % % % F.s+U.U.i+>.* * * * * * * R ",
"R * * * * * * * * * * * * * * * [ 9.T.]+f.| * >.g+V.=.%+x.| ! | | | | | | | | e w w w w [ a.2+% > % Z.j.B y B * * * * * * * * R ",
"R * * * * * * * * * * * * * * * * e [ B ! * * * w 3 e.!+| * * * * * * * * * * * * * * * * | I.^+V.=.a.* * * * * * * * * * * * R ",
"R * * * * * * * * * * * * * * * * * * * * * * * * * * * * * * * * * * * * * * * * * * * * * * >.I.x.[ * * * * * * * * * * * * R ",
"R * * * * * * * * * * * * * * * * * * * * * * * * * * * * * * * * * * * * * * * * * * * * * * * * * * * * * * * * * * * * * * R ",
"R * * * * * * * * * * * * * * | w w e ! * * * * * * * * * * * * * * * + + * * * * * * * * * * * * * * * * * * * * * * * * * * R ",
"R * * * * * * * * * * * * | I.].l.6.}.R + * * * %.n 2 a.R | * * * * N f.f.!+[ * * * * * * e N R 3 [ | * * * * * * * * * * * * R ",
"R * * * * * * * * * * * * R.2+`.a.Z.$+f.+ * * ! f.g+5.)+X.>.* * * ! 2 6.X.$+g+e * * * * >.}.$+$+$+E.R * * * * * * * * * * * * R ",
"R * * * * * * * * * * * * y 6.`.g+^+$+I.+ * * * * e w g+X.;+* * * * e w [ )+5.e * * * + ( _.2+x.^+7 %.+ * * * * * * * * * * * R ",
"R * * * * * * * * * * * * | a.$+$.).$+R + * * * >.5.l.E.6.w * * * * B n 9.E.9.| * * * * N `.$+l.X.7 f.* * * * * * * * * * * * R ",
"R * * * * * * * * * * * | e.)+X.i.^+`.3 + * * * | y !+X.}.e * * * * e R a.`.9.| * * * | a.$+_.X.$+_.3 * * * * * * * * * * * * R ",
"R * * * * * * * * * * * >.}.9.[ | g+E.( + * * ! 3 2 2 )+9.| * * * ! y R.I.E.9.! * * * w ^+7 6.!+X._.N * * * * * * * * * * * * R ",
"R * * * * * * * * * * * * >.e * * N R >.* * * ! %.9.9.9.R * * * * | 9.6.X.X.f.* * * * * !+9.)+)+$+l.w * * * * * * * * * * * * R ",
"R * * * * * * * * * * * * * * * * * * * * * * * * | | ! * * * * * * | w >.>.| * * * * * * | >.[ [ >.* * * * * * * * * * * * * R ",
"R * * * * * * * * * * * * * * * * * * * * * * * * * * * * * * * * * * * * * * * * * * * * * * * * * * * * * * * * * * * * * * R ",
"i.( ( ( ( ( ( ( ( ( ( ( ( ( ( ( ( ( ( ( ( ( ( ( ( ( ( ( ( ( ( ( ( ( ( ( ( ( ( ( ( ( ( ( ( ( ( ( ( ( ( ( ( ( ( ( ( ( ( ( ( ( ( i.",
" .Z Z Z Z Z Z Z Z Z Z Z Z Z Z Z Z Z Z Z Z Z Z Z Z Z Z Z Z Z Z Z Z Z Z Z Z Z Z Z Z Z Z Z Z Z Z Z Z Z Z Z Z Z Z Z Z Z Z Z Z Z Z  .",
"` & & & & & & & & & & & & & & & & & & & & & & & & & & & & & & & & & & & & & & & & & & & & & & & & & & & & & & & & & & & & & & ` ",
"F & & & & & & & & & & & & & & & & & & & & & & & & & & & & & & & & & & & & & & & & & & & & & & & & & & & & & & & & & & & & & & ` ",
"` @ @ @ @ @ @ @ @ @ @ @ @ @ @ @ @ @ @ @ @ @ @ @ @ @ @ @ @ @ @ @ @ @ @ @ @ @ @ @ @ @ @ @ @ @ @ @ @ @ @ @ @ @ @ @ @ @ @ @ @ @ @ ` ",
"J q q q q s.4.4.4.4.4.4.4.4.4.4.4.s.q q q q q q q q q q q q q q q q q q q q q q q q q q q q s.4.4.4.4.4.4.4.4.4.4.4.s.q q q q m "};
