/* XPM */
static char * epaulesface_xpm[] = {
"48 38 103 2",
"  	c #686868",
". 	c #000000",
"+ 	c #5A5A5A",
"@ 	c #626262",
"# 	c #5F5F5F",
"$ 	c #EAEAEA",
"% 	c #FFFFFF",
"& 	c #F8F8F8",
"* 	c #C7AE0E",
"= 	c #D8BE0F",
"- 	c #A18D0B",
"; 	c #0B0901",
"> 	c #2E2903",
", 	c #7D6E09",
"' 	c #3F3704",
") 	c #6C5E07",
"! 	c #D3B90E",
"~ 	c #E5C910",
"{ 	c #FADB11",
"] 	c #BAA30D",
"^ 	c #0C0B01",
"/ 	c #362F04",
"( 	c #907F0A",
"_ 	c #494005",
": 	c #7C6D08",
"< 	c #F4D511",
"[ 	c #F6D711",
"} 	c #F9DA11",
"| 	c #E7CA0F",
"1 	c #685B07",
"2 	c #F7D911",
"3 	c #F8D911",
"4 	c #F7D811",
"5 	c #CFB50C",
"6 	c #F4D610",
"7 	c #F3D510",
"8 	c #C4AB0B",
"9 	c #797979",
"0 	c #FADC30",
"a 	c #FADB1D",
"b 	c #FADB26",
"c 	c #F9DB31",
"d 	c #DFC42C",
"e 	c #7F7F7F",
"f 	c #FADC31",
"g 	c #FADB17",
"h 	c #FADB18",
"i 	c #E5C92A",
"j 	c #FADC34",
"k 	c #FADB12",
"l 	c #FADB1A",
"m 	c #E7CB2F",
"n 	c #FADD46",
"o 	c #FADB14",
"p 	c #FADB16",
"q 	c #FADB1F",
"r 	c #EACE2C",
"s 	c #FBE16A",
"t 	c #FADB13",
"u 	c #DEC437",
"v 	c #ECCE0F",
"w 	c #362F03",
"x 	c #3B3B3B",
"y 	c #D5BE4C",
"z 	c #F3D628",
"A 	c #F9DB25",
"B 	c #FADB24",
"C 	c #FADC26",
"D 	c #FADB21",
"E 	c #FADE4C",
"F 	c #FBE483",
"G 	c #CFB741",
"H 	c #9D8A0B",
"I 	c #AC960C",
"J 	c #7F7009",
"K 	c #080701",
"L 	c #252003",
"M 	c #635707",
"N 	c #978309",
"O 	c #120F01",
"P 	c #080808",
"Q 	c #564A02",
"R 	c #988512",
"S 	c #B9A222",
"T 	c #C9B236",
"U 	c #D0B94F",
"V 	c #BBA750",
"W 	c #9B8D54",
"X 	c #606060",
"Y 	c #202020",
"Z 	c #181502",
"` 	c #1B1702",
" .	c #141101",
"..	c #010100",
"+.	c #060500",
"@.	c #0F0D01",
"#.	c #161302",
"$.	c #020100",
"%.	c #050505",
"&.	c #060606",
"*.	c #0D0D0D",
"=.	c #111111",
"-.	c #030303",
"                                                                                                ",
". + @ @ @ @ @ @ @ @ @ @ @ @ @ @ @ @ @ @ @ @ @ @ @ @ @ @ @ @ @ @ @ @ @ @ @ @ @ @ @ @ @ @ @ @ # . ",
". $ % % % % % % % % % % % % % % % % % % % % % % % % % % % % % % % % % % % % % % % % % % % % & . ",
". $ % % % % % % % % % % % % % % % % % % % % % % % % % % % % % % % % % % % % % % % % % % % % & . ",
". $ % % % % % % % % % % % % % % % % % % % % % % % % % % % % % % % % % % % % % % % % % % % % & . ",
". $ % % % % % % % % % % % % % % % % % % % % % % % % % % % % % % % % % % % % % % % % % % % % & . ",
". $ % % % % % % % % % % % % % % % % % % % % % % % % % % % % % % % % % % % % % % % % % % % % & . ",
". $ % % % % % % % % % % % % % % % % % % % % % % % % % % % % % % % % % % % % % % % % % % % % & . ",
". $ % % % % % % % % % % % % % % % % % % % % % % % % % % % % % % % % % % % % % % % % % % % % & . ",
". $ % % % % % % % % % % % % % % % % % % % % % % % % % % % % % % % % % % % % % % % % % % % % & . ",
". $ % % % % % % % % % % % % % % % % % % % % % % % % % % % % % % % % % % % % % % % % % % % % & . ",
". $ % % % % % % % % % % % % % % % % % % % % % % % % % % % % % % % % % % % % % % % % % % % % & . ",
". . . . . . . . . . . . . . . . . . . . . . . . . . . . . . . . . . . . . . . . . . . . . . . . ",
". * = = = = = = = = - ; = = = = = = = = = = > , = = = = = = = = = = ' ) = = = = = = = = = = ! . ",
". ~ { { { { { { { { ] ^ { { { { { { { { { { / ( { { { { { { { { { { _ : { { { { { { { { { { < . ",
". ~ { { { { { { { { ] ^ { { { { { { { { { { / ( { { { { { { { { { { _ : { { { { { { { { { { < . ",
". ~ { { { { { { { { ] ^ { { { { { { { { { { / ( { { { { { { { { { { _ : { { { { { { { { { { < . ",
". ~ { { { { { { { { ] ^ { { { { { { { { { { / ( { { { { { { { { { { _ : { { { { { { { { { { < . ",
". ~ { { { { { { { { ] ^ { { { { { { { { { { / ( { { { { { { { { { { _ : { { { { { { { { { { < . ",
". ~ { { { { { { { { ] ^ { { { { { { { { { { / ( { { { { { { { { { { _ : { { { { { { { { { { < . ",
". ~ { { { { { { { { ] ^ { { { { { { { { { { / ( { { { { { { { { { { _ : { { { { { { { { { { < . ",
". ~ { { { { { { { { ] ^ { { { { { { { { { { / ( { { { { { { { { { { _ : { { { { { { { { { { < . ",
". ~ { { { { { { { { ] ^ { { { { { { { { { { / ( { { { { { { { { { { _ : { { { { { { { { { { < . ",
". ~ { { { { { { { { ] ^ { { { { { { { { { { / ( { { { { { { { { { { _ : { { { { { { { { { { < . ",
". ~ { { { { { { { { ] ^ { { { { { { { { { { / ( { { { { { { { { { { _ : { { { { { { { { { { < . ",
". ~ { { { { { { { { ] ^ { { { { { { { { { { / ( { { { { { { { { { { _ : { { { { { { { { { { < . ",
". ~ { { { { { { { { ] ^ { { { { { { { { { { / ( { { { { { { { { { { _ : { { { { { { { { { { [ . ",
". ~ { { { { { { { { ] ^ { { { { { { { { { { / ( { { { { { { { { { { _ : { { { { { { { { { } | . ",
". ~ { { { { { { { { ] ^ { { { { { { { { { { / ( { { { { { { { { { { _ 1 2 { { { { { { } 3 4 5 . ",
". ~ { { { { { { { { ] ^ { { { { { { { { { { / ( { { { { { { { { { { _ . 6 { { { { { { 3 7 7 8 . ",
". ~ { { { { { { { { ] ^ { { { { { { { { { { / ( { { { { { { { { { { _ 9 0 { { { { { { a b c d . ",
". ~ { { { { { { { { ] ^ { { { { { { { { { { / ( { { { { { { { { { { _ e f { { { { { { { g h i . ",
". ~ { { { { { { { { ] ^ { { { { { { { { { { / ( { { { { { { { { { { _ e j { { { { { { k k l m . ",
". ~ { { { { { { { { ] ^ { { { { { { { { { { / ( { { { { { { { { { { _ e n { { o k { { p k q r . ",
". ~ { { { { { { { { ] ^ { { { { { { { { { { / ( { { { { { { { { { { _ e s t { p { { { t g { u . ",
". ~ { { { { { { { { ] ^ { { { { { { { { { { / ( { { { { { { { { { v w x y z A B C q D f E F G . ",
". H I I I I I I I I J K I I I I I I I I I I L M I I I I I I I I I N O P Q R S T U U U V W X Y . ",
". Z ` ` ` ` ` ` ` `  ...` ` ` ` ` ` ` ` ` ` +.@.` ` ` ` ` ` ` ` ` #.$.P . %.&.*.=.*.*.&.-.-.. . "};
