/* XPM */
static char * homerbrasd_xpm[] = {
"140 48 112 2",
"  	c #686868",
". 	c #000000",
"+ 	c #5F5F5F",
"@ 	c #F8F8F8",
"# 	c #3C3C3C",
"$ 	c #867509",
"% 	c #F4D511",
"& 	c #E2C60F",
"* 	c #D3B90E",
"= 	c #F6D711",
"- 	c #E7CA0F",
"; 	c #CFB50C",
"> 	c #C4AB0B",
", 	c #DFC42C",
"' 	c #E5C92A",
") 	c #E7CB2F",
"! 	c #EACE2C",
"~ 	c #DEC437",
"{ 	c #CFB741",
"] 	c #202020",
"^ 	c #626262",
"/ 	c #FFFFFF",
"( 	c #3E3E3E",
"_ 	c #897809",
": 	c #FADB11",
"< 	c #E8CB10",
"[ 	c #D8BE0F",
"} 	c #F9DA11",
"| 	c #F7D811",
"1 	c #F3D510",
"2 	c #F9DB31",
"3 	c #FADB18",
"4 	c #FADB1A",
"5 	c #FADB1F",
"6 	c #FBE483",
"7 	c #606060",
"8 	c #030303",
"9 	c #F8D911",
"0 	c #FADB26",
"a 	c #FADB17",
"b 	c #FADB12",
"c 	c #FADE4C",
"d 	c #9B8D54",
"e 	c #FADB1D",
"f 	c #FADB16",
"g 	c #FADB13",
"h 	c #FADC31",
"i 	c #BBA750",
"j 	c #060606",
"k 	c #FADB21",
"l 	c #D0B94F",
"m 	c #0D0D0D",
"n 	c #FADC26",
"o 	c #111111",
"p 	c #FADB14",
"q 	c #FADB24",
"r 	c #C9B236",
"s 	c #F9DB25",
"t 	c #B9A222",
"u 	c #F3D628",
"v 	c #988512",
"w 	c #050505",
"x 	c #F7D911",
"y 	c #F4D610",
"z 	c #FADC30",
"A 	c #FADC34",
"B 	c #FADD46",
"C 	c #FBE16A",
"D 	c #D5BE4C",
"E 	c #564A02",
"F 	c #6C5E07",
"G 	c #7C6D08",
"H 	c #685B07",
"I 	c #797979",
"J 	c #7F7F7F",
"K 	c #3B3B3B",
"L 	c #080808",
"M 	c #3F3704",
"N 	c #494005",
"O 	c #362F03",
"P 	c #120F01",
"Q 	c #020100",
"R 	c #ECCE0F",
"S 	c #978309",
"T 	c #161302",
"U 	c #AC960C",
"V 	c #1B1702",
"W 	c #7D6E09",
"X 	c #907F0A",
"Y 	c #635707",
"Z 	c #0F0D01",
"` 	c #2E2903",
" .	c #362F04",
"..	c #252003",
"+.	c #060500",
"@.	c #0B0901",
"#.	c #0C0B01",
"$.	c #080701",
"%.	c #010100",
"&.	c #A18D0B",
"*.	c #BAA30D",
"=.	c #7F7009",
"-.	c #141101",
";.	c #5A5A5A",
">.	c #EAEAEA",
",.	c #393939",
"'.	c #7E6E09",
").	c #E5C910",
"!.	c #D5BA0E",
"~.	c #C7AE0E",
"{.	c #9D8A0B",
"].	c #181502",
"  . . . . . . . . . . . . . . . . . . . . . . . . . . . . . . . . . . . . . . . . . . . . . . . . . . . . . . . . . . . . . . . . . . . . . . . . . . . . . . . . . . . . . . . . . . . . . . . . . . . . . . . . . . . . . . . . . . . . . . . . . . . . . . . . . . . . . . . . . . . ",
"  + @ @ @ @ @ @ @ @ @ @ @ @ @ @ @ @ @ @ @ @ @ @ @ @ @ @ @ @ @ @ @ @ @ @ @ # $ % % % % % % % % % % % % % % % % % % % % % % % % % % % % % % % % % % % % % % % % % % % % % % % % % % % % % % % % % % % % % % % % % % % % % % % % % % & . * % % % % % % % % % % % % = - ; > , ' ) ! ~ { ] . ",
"  ^ / / / / / / / / / / / / / / / / / / / / / / / / / / / / / / / / / / / ( _ : : : : : : : : : : : : : : : : : : : : : : : : : : : : : : : : : : : : : : : : : : : : : : : : : : : : : : : : : : : : : : : : : : : : : : : : : : < . [ : : : : : : : : : : : : : } | 1 2 3 4 5 : 6 7 8 ",
"  ^ / / / / / / / / / / / / / / / / / / / / / / / / / / / / / / / / / / / ( _ : : : : : : : : : : : : : : : : : : : : : : : : : : : : : : : : : : : : : : : : : : : : : : : : : : : : : : : : : : : : : : : : : : : : : : : : : : < . [ : : : : : : : : : : : : : : 9 1 0 a b b a c d 8 ",
"  ^ / / / / / / / / / / / / / / / / / / / / / / / / / / / / / / / / / / / ( _ : : : : : : : : : : : : : : : : : : : : : : : : : : : : : : : : : : : : : : : : : : : : : : : : : : : : : : : : : : : : : : : : : : : : : : : : : : < . [ : : : : : : : : : : : : : : } 9 e : b f g h i j ",
"  ^ / / / / / / / / / / / / / / / / / / / / / / / / / / / / / / / / / / / ( _ : : : : : : : : : : : : : : : : : : : : : : : : : : : : : : : : : : : : : : : : : : : : : : : : : : : : : : : : : : : : : : : : : : : : : : : : : : < . [ : : : : : : : : : : : : : : : : : : : : : k l m ",
"  ^ / / / / / / / / / / / / / / / / / / / / / / / / / / / / / / / / / / / ( _ : : : : : : : : : : : : : : : : : : : : : : : : : : : : : : : : : : : : : : : : : : : : : : : : : : : : : : : : : : : : : : : : : : : : : : : : : : < . [ : : : : : : : : : : : : : : : : : : : : : 5 l m ",
"  ^ / / / / / / / / / / / / / / / / / / / / / / / / / / / / / / / / / / / ( _ : : : : : : : : : : : : : : : : : : : : : : : : : : : : : : : : : : : : : : : : : : : : : : : : : : : : : : : : : : : : : : : : : : : : : : : : : : < . [ : : : : : : : : : : : : : : : : : : : b : n l o ",
"  ^ / / / / / / / / / / / / / / / / / / / / / / / / / / / / / / / / / / / ( _ : : : : : : : : : : : : : : : : : : : : : : : : : : : : : : : : : : : : : : : : : : : : : : : : : : : : : : : : : : : : : : : : : : : : : : : : : : < . [ : : : : : : : : : : : : : : : : : : : p f q r m ",
"  ^ / / / / / / / / / / / / / / / / / / / / / / / / / / / / / / / / / / / ( _ : : : : : : : : : : : : : : : : : : : : : : : : : : : : : : : : : : : : : : : : : : : : : : : : : : : : : : : : : : : : : : : : : : : : : : : : : : < . [ : : : : : : : : : : : : : : : : : : : : : s t j ",
"  ^ / / / / / / / / / / / / / / / / / / / / / / / / / / / / / / / / / / / ( _ : : : : : : : : : : : : : : : : : : : : : : : : : : : : : : : : : : : : : : : : : : : : : : : : : : : : : : : : : : : : : : : : : : : : : : : : : : < . [ : : : : : : : : : : : : : : : : : : : : g u v w ",
"  ^ / / / / / / / / / / / / / / / / / / / / / / / / / / / / / / / / / / / ( _ : : : : : : : : : : : : : : : : : : : : : : : : : : : : : : : : : : : : : : : : : : : : : : : : : : : : : : : : : : : : : : : : : : : : : : : : : : < . [ : : : : : : : : : : : : : : x y z h A B C D E . ",
"  ^ / / / / / / / / / / / / / / / / / / / / / / / / / / / / / / / / / / / ( _ : : : : : : : : : : : : : : : : : : : : : : : : : : : : : : : : : : : : : : : : : : : : : : : : : : : : : : : : : : : : : : : : : : : : : : : : : : < . F G G G G G G G G G G G G G G H . I J J J J K L L ",
"  ^ / / / / / / / / / / / / / / / / / / / / / / / / / / / / / / / / / / / ( _ : : : : : : : : : : : : : : : : : : : : : : : : : : : : : : : : : : : : : : : : : : : : : : : : : : : : : : : : : : : : : : : : : : : : : : : : : : < . M N N N N N N N N N N N N N N N N N N N N N O P Q ",
"  ^ / / / / / / / / / / / / / / / / / / / / / / / / / / / / / / / / / / / ( _ : : : : : : : : : : : : : : : : : : : : : : : : : : : : : : : : : : : : : : : : : : : : : : : : : : : : : : : : : : : : : : : : : : : : : : : : : : < . [ : : : : : : : : : : : : : : : : : : : : : R S T ",
"  ^ / / / / / / / / / / / / / / / / / / / / / / / / / / / / / / / / / / / ( _ : : : : : : : : : : : : : : : : : : : : : : : : : : : : : : : : : : : : : : : : : : : : : : : : : : : : : : : : : : : : : : : : : : : : : : : : : : < . [ : : : : : : : : : : : : : : : : : : : : : : U V ",
"  ^ / / / / / / / / / / / / / / / / / / / / / / / / / / / / / / / / / / / ( _ : : : : : : : : : : : : : : : : : : : : : : : : : : : : : : : : : : : : : : : : : : : : : : : : : : : : : : : : : : : : : : : : : : : : : : : : : : < . [ : : : : : : : : : : : : : : : : : : : : : : U V ",
"  ^ / / / / / / / / / / / / / / / / / / / / / / / / / / / / / / / / / / / ( _ : : : : : : : : : : : : : : : : : : : : : : : : : : : : : : : : : : : : : : : : : : : : : : : : : : : : : : : : : : : : : : : : : : : : : : : : : : < . [ : : : : : : : : : : : : : : : : : : : : : : U V ",
"  ^ / / / / / / / / / / / / / / / / / / / / / / / / / / / / / / / / / / / ( _ : : : : : : : : : : : : : : : : : : : : : : : : : : : : : : : : : : : : : : : : : : : : : : : : : : : : : : : : : : : : : : : : : : : : : : : : : : < . [ : : : : : : : : : : : : : : : : : : : : : : U V ",
"  ^ / / / / / / / / / / / / / / / / / / / / / / / / / / / / / / / / / / / ( _ : : : : : : : : : : : : : : : : : : : : : : : : : : : : : : : : : : : : : : : : : : : : : : : : : : : : : : : : : : : : : : : : : : : : : : : : : : < . [ : : : : : : : : : : : : : : : : : : : : : : U V ",
"  ^ / / / / / / / / / / / / / / / / / / / / / / / / / / / / / / / / / / / ( _ : : : : : : : : : : : : : : : : : : : : : : : : : : : : : : : : : : : : : : : : : : : : : : : : : : : : : : : : : : : : : : : : : : : : : : : : : : < . [ : : : : : : : : : : : : : : : : : : : : : : U V ",
"  ^ / / / / / / / / / / / / / / / / / / / / / / / / / / / / / / / / / / / ( _ : : : : : : : : : : : : : : : : : : : : : : : : : : : : : : : : : : : : : : : : : : : : : : : : : : : : : : : : : : : : : : : : : : : : : : : : : : < . [ : : : : : : : : : : : : : : : : : : : : : : U V ",
"  ^ / / / / / / / / / / / / / / / / / / / / / / / / / / / / / / / / / / / ( _ : : : : : : : : : : : : : : : : : : : : : : : : : : : : : : : : : : : : : : : : : : : : : : : : : : : : : : : : : : : : : : : : : : : : : : : : : : < . [ : : : : : : : : : : : : : : : : : : : : : : U V ",
"  ^ / / / / / / / / / / / / / / / / / / / / / / / / / / / / / / / / / / / ( _ : : : : : : : : : : : : : : : : : : : : : : : : : : : : : : : : : : : : : : : : : : : : : : : : : : : : : : : : : : : : : : : : : : : : : : : : : : < . [ : : : : : : : : : : : : : : : : : : : : : : U V ",
"  ^ / / / / / / / / / / / / / / / / / / / / / / / / / / / / / / / / / / / ( _ : : : : : : : : : : : : : : : : : : : : : : : : : : : : : : : : : : : : : : : : : : : : : : : : : : : : : : : : : : : : : : : : : : : : : : : : : : < . W X X X X X X X X X X X X X X X X X X X X X X Y Z ",
"  ^ / / / / / / / / / / / / / / / / / / / / / / / / / / / / / / / / / / / ( _ : : : : : : : : : : : : : : : : : : : : : : : : : : : : : : : : : : : : : : : : : : : : : : : : : : : : : : : : : : : : : : : : : : : : : : : : : : < . `  . . . . . . . . . . . . . . . . . . . . . ...+.",
"  ^ / / / / / / / / / / / / / / / / / / / / / / / / / / / / / / / / / / / ( _ : : : : : : : : : : : : : : : : : : : : : : : : : : : : : : : : : : : : : : : : : : : : : : : : : : : : : : : : : : : : : : : : : : : : : : : : : : < . [ : : : : : : : : : : : : : : : : : : : : : : U V ",
"  ^ / / / / / / / / / / / / / / / / / / / / / / / / / / / / / / / / / / / ( _ : : : : : : : : : : : : : : : : : : : : : : : : : : : : : : : : : : : : : : : : : : : : : : : : : : : : : : : : : : : : : : : : : : : : : : : : : : < . [ : : : : : : : : : : : : : : : : : : : : : : U V ",
"  ^ / / / / / / / / / / / / / / / / / / / / / / / / / / / / / / / / / / / ( _ : : : : : : : : : : : : : : : : : : : : : : : : : : : : : : : : : : : : : : : : : : : : : : : : : : : : : : : : : : : : : : : : : : : : : : : : : : < . [ : : : : : : : : : : : : : : : : : : : : : : U V ",
"  ^ / / / / / / / / / / / / / / / / / / / / / / / / / / / / / / / / / / / ( _ : : : : : : : : : : : : : : : : : : : : : : : : : : : : : : : : : : : : : : : : : : : : : : : : : : : : : : : : : : : : : : : : : : : : : : : : : : < . [ : : : : : : : : : : : : : : : : : : : : : : U V ",
"  ^ / / / / / / / / / / / / / / / / / / / / / / / / / / / / / / / / / / / ( _ : : : : : : : : : : : : : : : : : : : : : : : : : : : : : : : : : : : : : : : : : : : : : : : : : : : : : : : : : : : : : : : : : : : : : : : : : : < . [ : : : : : : : : : : : : : : : : : : : : : : U V ",
"  ^ / / / / / / / / / / / / / / / / / / / / / / / / / / / / / / / / / / / ( _ : : : : : : : : : : : : : : : : : : : : : : : : : : : : : : : : : : : : : : : : : : : : : : : : : : : : : : : : : : : : : : : : : : : : : : : : : : < . [ : : : : : : : : : : : : : : : : : : : : : : U V ",
"  ^ / / / / / / / / / / / / / / / / / / / / / / / / / / / / / / / / / / / ( _ : : : : : : : : : : : : : : : : : : : : : : : : : : : : : : : : : : : : : : : : : : : : : : : : : : : : : : : : : : : : : : : : : : : : : : : : : : < . [ : : : : : : : : : : : : : : : : : : : : : : U V ",
"  ^ / / / / / / / / / / / / / / / / / / / / / / / / / / / / / / / / / / / ( _ : : : : : : : : : : : : : : : : : : : : : : : : : : : : : : : : : : : : : : : : : : : : : : : : : : : : : : : : : : : : : : : : : : : : : : : : : : < . [ : : : : : : : : : : : : : : : : : : : : : : U V ",
"  ^ / / / / / / / / / / / / / / / / / / / / / / / / / / / / / / / / / / / ( _ : : : : : : : : : : : : : : : : : : : : : : : : : : : : : : : : : : : : : : : : : : : : : : : : : : : : : : : : : : : : : : : : : : : : : : : : : : < . [ : : : : : : : : : : : : : : : : : : : : : : U V ",
"  ^ / / / / / / / / / / / / / / / / / / / / / / / / / / / / / / / / / / / ( _ : : : : : : : : : : : : : : : : : : : : : : : : : : : : : : : : : : : : : : : : : : : : : : : : : : : : : : : : : : : : : : : : : : : : : : : : : : < . [ : : : : : : : : : : : : : : : : : : : : : : U V ",
"  ^ / / / / / / / / / / / / / / / / / / / / / / / / / / / / / / / / / / / ( _ : : : : : : : : : : : : : : : : : : : : : : : : : : : : : : : : : : : : : : : : : : : : : : : : : : : : : : : : : : : : : : : : : : : : : : : : : : < . @.#.#.#.#.#.#.#.#.#.#.#.#.#.#.#.#.#.#.#.#.#.#.$.%.",
"  ^ / / / / / / / / / / / / / / / / / / / / / / / / / / / / / / / / / / / ( _ : : : : : : : : : : : : : : : : : : : : : : : : : : : : : : : : : : : : : : : : : : : : : : : : : : : : : : : : : : : : : : : : : : : : : : : : : : < . &.*.*.*.*.*.*.*.*.*.*.*.*.*.*.*.*.*.*.*.*.*.*.=.-.",
"  ^ / / / / / / / / / / / / / / / / / / / / / / / / / / / / / / / / / / / ( _ : : : : : : : : : : : : : : : : : : : : : : : : : : : : : : : : : : : : : : : : : : : : : : : : : : : : : : : : : : : : : : : : : : : : : : : : : : < . [ : : : : : : : : : : : : : : : : : : : : : : U V ",
"  ^ / / / / / / / / / / / / / / / / / / / / / / / / / / / / / / / / / / / ( _ : : : : : : : : : : : : : : : : : : : : : : : : : : : : : : : : : : : : : : : : : : : : : : : : : : : : : : : : : : : : : : : : : : : : : : : : : : < . [ : : : : : : : : : : : : : : : : : : : : : : U V ",
"  ^ / / / / / / / / / / / / / / / / / / / / / / / / / / / / / / / / / / / ( _ : : : : : : : : : : : : : : : : : : : : : : : : : : : : : : : : : : : : : : : : : : : : : : : : : : : : : : : : : : : : : : : : : : : : : : : : : : < . [ : : : : : : : : : : : : : : : : : : : : : : U V ",
"  ^ / / / / / / / / / / / / / / / / / / / / / / / / / / / / / / / / / / / ( _ : : : : : : : : : : : : : : : : : : : : : : : : : : : : : : : : : : : : : : : : : : : : : : : : : : : : : : : : : : : : : : : : : : : : : : : : : : < . [ : : : : : : : : : : : : : : : : : : : : : : U V ",
"  ^ / / / / / / / / / / / / / / / / / / / / / / / / / / / / / / / / / / / ( _ : : : : : : : : : : : : : : : : : : : : : : : : : : : : : : : : : : : : : : : : : : : : : : : : : : : : : : : : : : : : : : : : : : : : : : : : : : < . [ : : : : : : : : : : : : : : : : : : : : : : U V ",
"  ^ / / / / / / / / / / / / / / / / / / / / / / / / / / / / / / / / / / / ( _ : : : : : : : : : : : : : : : : : : : : : : : : : : : : : : : : : : : : : : : : : : : : : : : : : : : : : : : : : : : : : : : : : : : : : : : : : : < . [ : : : : : : : : : : : : : : : : : : : : : : U V ",
"  ^ / / / / / / / / / / / / / / / / / / / / / / / / / / / / / / / / / / / ( _ : : : : : : : : : : : : : : : : : : : : : : : : : : : : : : : : : : : : : : : : : : : : : : : : : : : : : : : : : : : : : : : : : : : : : : : : : : < . [ : : : : : : : : : : : : : : : : : : : : : : U V ",
"  ^ / / / / / / / / / / / / / / / / / / / / / / / / / / / / / / / / / / / ( _ : : : : : : : : : : : : : : : : : : : : : : : : : : : : : : : : : : : : : : : : : : : : : : : : : : : : : : : : : : : : : : : : : : : : : : : : : : < . [ : : : : : : : : : : : : : : : : : : : : : : U V ",
"  ;.>.>.>.>.>.>.>.>.>.>.>.>.>.>.>.>.>.>.>.>.>.>.>.>.>.>.>.>.>.>.>.>.>.>.>.,.'.).).).).).).).).).).).).).).).).).).).).).).).).).).).).).).).).).).).).).).).).).).).).).).).).).).).).).).).).).).).).).).).).).).).).).).).).).).!.. ~.).).).).).).).).).).).).).).).).).).).).).).{.].",
"  . . . . . . . . . . . . . . . . . . . . . . . . . . . . . . . . . . . . . . . . . . . . . . . . . . . . . . . . . . . . . . . . . . . . . . . . . . . . . . . . . . . . . . . . . . . . . . . . . . . . . . . . . . . . . . . . . . . . . . . . . . . . . . . . . . . . . . . . . . . "};
