/* XPM */
static char * homerbras_xpm[] = {
"48 140 112 2",
"  	c #000000",
". 	c #030303",
"+ 	c #060606",
"@ 	c #0D0D0D",
"# 	c #111111",
"$ 	c #050505",
"% 	c #080808",
"& 	c #020100",
"* 	c #161302",
"= 	c #1B1702",
"- 	c #0F0D01",
"; 	c #060500",
"> 	c #010100",
", 	c #141101",
"' 	c #181502",
") 	c #202020",
"! 	c #606060",
"~ 	c #9B8D54",
"{ 	c #BBA750",
"] 	c #D0B94F",
"^ 	c #C9B236",
"/ 	c #B9A222",
"( 	c #988512",
"_ 	c #564A02",
": 	c #120F01",
"< 	c #978309",
"[ 	c #AC960C",
"} 	c #635707",
"| 	c #252003",
"1 	c #080701",
"2 	c #7F7009",
"3 	c #9D8A0B",
"4 	c #CFB741",
"5 	c #FBE483",
"6 	c #FADE4C",
"7 	c #FADC31",
"8 	c #FADB21",
"9 	c #FADB1F",
"0 	c #FADC26",
"a 	c #FADB24",
"b 	c #F9DB25",
"c 	c #F3D628",
"d 	c #D5BE4C",
"e 	c #3B3B3B",
"f 	c #362F03",
"g 	c #ECCE0F",
"h 	c #FADB11",
"i 	c #907F0A",
"j 	c #362F04",
"k 	c #0C0B01",
"l 	c #BAA30D",
"m 	c #E5C910",
"n 	c #DEC437",
"o 	c #FADB17",
"p 	c #FADB13",
"q 	c #FADB16",
"r 	c #FBE16A",
"s 	c #7F7F7F",
"t 	c #494005",
"u 	c #EACE2C",
"v 	c #FADB12",
"w 	c #FADB14",
"x 	c #FADD46",
"y 	c #E7CB2F",
"z 	c #FADB1A",
"A 	c #FADC34",
"B 	c #E5C92A",
"C 	c #FADB18",
"D 	c #DFC42C",
"E 	c #F9DB31",
"F 	c #FADB26",
"G 	c #FADB1D",
"H 	c #FADC30",
"I 	c #797979",
"J 	c #C4AB0B",
"K 	c #F3D510",
"L 	c #F8D911",
"M 	c #F4D610",
"N 	c #CFB50C",
"O 	c #F7D811",
"P 	c #F9DA11",
"Q 	c #F7D911",
"R 	c #685B07",
"S 	c #E7CA0F",
"T 	c #7C6D08",
"U 	c #F6D711",
"V 	c #F4D511",
"W 	c #D3B90E",
"X 	c #D8BE0F",
"Y 	c #6C5E07",
"Z 	c #3F3704",
"` 	c #7D6E09",
" .	c #2E2903",
"..	c #0B0901",
"+.	c #A18D0B",
"@.	c #C7AE0E",
"#.	c #E2C60F",
"$.	c #E8CB10",
"%.	c #D5BA0E",
"&.	c #867509",
"*.	c #897809",
"=.	c #7E6E09",
"-.	c #3C3C3C",
";.	c #3E3E3E",
">.	c #393939",
",.	c #F8F8F8",
"'.	c #FFFFFF",
").	c #EAEAEA",
"!.	c #5F5F5F",
"~.	c #626262",
"{.	c #5A5A5A",
"].	c #686868",
"    . . + @ @ # @ + $   % & * = = = = = = = = = - ; = = = = = = = = = = > , = = = = = = = = '   ",
"  ) ! ~ { ] ] ] ^ / ( _ % : < [ [ [ [ [ [ [ [ [ } | [ [ [ [ [ [ [ [ [ [ 1 2 [ [ [ [ [ [ [ [ 3   ",
"  4 5 6 7 8 9 0 a b c d e f g h h h h h h h h h i j h h h h h h h h h h k l h h h h h h h h m   ",
"  n h o p h h h q h p r s t h h h h h h h h h h i j h h h h h h h h h h k l h h h h h h h h m   ",
"  u 9 v q h h v w h h x s t h h h h h h h h h h i j h h h h h h h h h h k l h h h h h h h h m   ",
"  y z v v h h h h h h A s t h h h h h h h h h h i j h h h h h h h h h h k l h h h h h h h h m   ",
"  B C o h h h h h h h 7 s t h h h h h h h h h h i j h h h h h h h h h h k l h h h h h h h h m   ",
"  D E F G h h h h h h H I t h h h h h h h h h h i j h h h h h h h h h h k l h h h h h h h h m   ",
"  J K K L h h h h h h M   t h h h h h h h h h h i j h h h h h h h h h h k l h h h h h h h h m   ",
"  N O L P h h h h h h Q R t h h h h h h h h h h i j h h h h h h h h h h k l h h h h h h h h m   ",
"  S P h h h h h h h h h T t h h h h h h h h h h i j h h h h h h h h h h k l h h h h h h h h m   ",
"  U h h h h h h h h h h T t h h h h h h h h h h i j h h h h h h h h h h k l h h h h h h h h m   ",
"  V h h h h h h h h h h T t h h h h h h h h h h i j h h h h h h h h h h k l h h h h h h h h m   ",
"  V h h h h h h h h h h T t h h h h h h h h h h i j h h h h h h h h h h k l h h h h h h h h m   ",
"  V h h h h h h h h h h T t h h h h h h h h h h i j h h h h h h h h h h k l h h h h h h h h m   ",
"  V h h h h h h h h h h T t h h h h h h h h h h i j h h h h h h h h h h k l h h h h h h h h m   ",
"  V h h h h h h h h h h T t h h h h h h h h h h i j h h h h h h h h h h k l h h h h h h h h m   ",
"  V h h h h h h h h h h T t h h h h h h h h h h i j h h h h h h h h h h k l h h h h h h h h m   ",
"  V h h h h h h h h h h T t h h h h h h h h h h i j h h h h h h h h h h k l h h h h h h h h m   ",
"  V h h h h h h h h h h T t h h h h h h h h h h i j h h h h h h h h h h k l h h h h h h h h m   ",
"  V h h h h h h h h h h T t h h h h h h h h h h i j h h h h h h h h h h k l h h h h h h h h m   ",
"  V h h h h h h h h h h T t h h h h h h h h h h i j h h h h h h h h h h k l h h h h h h h h m   ",
"  V h h h h h h h h h h T t h h h h h h h h h h i j h h h h h h h h h h k l h h h h h h h h m   ",
"  V h h h h h h h h h h T t h h h h h h h h h h i j h h h h h h h h h h k l h h h h h h h h m   ",
"  W X X X X X X X X X X Y Z X X X X X X X X X X `  .X X X X X X X X X X ..+.X X X X X X X X @.  ",
"                                                                                                ",
"  #.$.$.$.$.$.$.$.$.$.$.$.$.$.$.$.$.$.$.$.$.$.$.$.$.$.$.$.$.$.$.$.$.$.$.$.$.$.$.$.$.$.$.$.$.%.  ",
"  V h h h h h h h h h h h h h h h h h h h h h h h h h h h h h h h h h h h h h h h h h h h h m   ",
"  V h h h h h h h h h h h h h h h h h h h h h h h h h h h h h h h h h h h h h h h h h h h h m   ",
"  V h h h h h h h h h h h h h h h h h h h h h h h h h h h h h h h h h h h h h h h h h h h h m   ",
"  V h h h h h h h h h h h h h h h h h h h h h h h h h h h h h h h h h h h h h h h h h h h h m   ",
"  V h h h h h h h h h h h h h h h h h h h h h h h h h h h h h h h h h h h h h h h h h h h h m   ",
"  V h h h h h h h h h h h h h h h h h h h h h h h h h h h h h h h h h h h h h h h h h h h h m   ",
"  V h h h h h h h h h h h h h h h h h h h h h h h h h h h h h h h h h h h h h h h h h h h h m   ",
"  V h h h h h h h h h h h h h h h h h h h h h h h h h h h h h h h h h h h h h h h h h h h h m   ",
"  V h h h h h h h h h h h h h h h h h h h h h h h h h h h h h h h h h h h h h h h h h h h h m   ",
"  V h h h h h h h h h h h h h h h h h h h h h h h h h h h h h h h h h h h h h h h h h h h h m   ",
"  V h h h h h h h h h h h h h h h h h h h h h h h h h h h h h h h h h h h h h h h h h h h h m   ",
"  V h h h h h h h h h h h h h h h h h h h h h h h h h h h h h h h h h h h h h h h h h h h h m   ",
"  V h h h h h h h h h h h h h h h h h h h h h h h h h h h h h h h h h h h h h h h h h h h h m   ",
"  V h h h h h h h h h h h h h h h h h h h h h h h h h h h h h h h h h h h h h h h h h h h h m   ",
"  V h h h h h h h h h h h h h h h h h h h h h h h h h h h h h h h h h h h h h h h h h h h h m   ",
"  V h h h h h h h h h h h h h h h h h h h h h h h h h h h h h h h h h h h h h h h h h h h h m   ",
"  V h h h h h h h h h h h h h h h h h h h h h h h h h h h h h h h h h h h h h h h h h h h h m   ",
"  V h h h h h h h h h h h h h h h h h h h h h h h h h h h h h h h h h h h h h h h h h h h h m   ",
"  V h h h h h h h h h h h h h h h h h h h h h h h h h h h h h h h h h h h h h h h h h h h h m   ",
"  V h h h h h h h h h h h h h h h h h h h h h h h h h h h h h h h h h h h h h h h h h h h h m   ",
"  V h h h h h h h h h h h h h h h h h h h h h h h h h h h h h h h h h h h h h h h h h h h h m   ",
"  V h h h h h h h h h h h h h h h h h h h h h h h h h h h h h h h h h h h h h h h h h h h h m   ",
"  V h h h h h h h h h h h h h h h h h h h h h h h h h h h h h h h h h h h h h h h h h h h h m   ",
"  V h h h h h h h h h h h h h h h h h h h h h h h h h h h h h h h h h h h h h h h h h h h h m   ",
"  V h h h h h h h h h h h h h h h h h h h h h h h h h h h h h h h h h h h h h h h h h h h h m   ",
"  V h h h h h h h h h h h h h h h h h h h h h h h h h h h h h h h h h h h h h h h h h h h h m   ",
"  V h h h h h h h h h h h h h h h h h h h h h h h h h h h h h h h h h h h h h h h h h h h h m   ",
"  V h h h h h h h h h h h h h h h h h h h h h h h h h h h h h h h h h h h h h h h h h h h h m   ",
"  V h h h h h h h h h h h h h h h h h h h h h h h h h h h h h h h h h h h h h h h h h h h h m   ",
"  V h h h h h h h h h h h h h h h h h h h h h h h h h h h h h h h h h h h h h h h h h h h h m   ",
"  V h h h h h h h h h h h h h h h h h h h h h h h h h h h h h h h h h h h h h h h h h h h h m   ",
"  V h h h h h h h h h h h h h h h h h h h h h h h h h h h h h h h h h h h h h h h h h h h h m   ",
"  V h h h h h h h h h h h h h h h h h h h h h h h h h h h h h h h h h h h h h h h h h h h h m   ",
"  V h h h h h h h h h h h h h h h h h h h h h h h h h h h h h h h h h h h h h h h h h h h h m   ",
"  V h h h h h h h h h h h h h h h h h h h h h h h h h h h h h h h h h h h h h h h h h h h h m   ",
"  V h h h h h h h h h h h h h h h h h h h h h h h h h h h h h h h h h h h h h h h h h h h h m   ",
"  V h h h h h h h h h h h h h h h h h h h h h h h h h h h h h h h h h h h h h h h h h h h h m   ",
"  V h h h h h h h h h h h h h h h h h h h h h h h h h h h h h h h h h h h h h h h h h h h h m   ",
"  V h h h h h h h h h h h h h h h h h h h h h h h h h h h h h h h h h h h h h h h h h h h h m   ",
"  V h h h h h h h h h h h h h h h h h h h h h h h h h h h h h h h h h h h h h h h h h h h h m   ",
"  V h h h h h h h h h h h h h h h h h h h h h h h h h h h h h h h h h h h h h h h h h h h h m   ",
"  V h h h h h h h h h h h h h h h h h h h h h h h h h h h h h h h h h h h h h h h h h h h h m   ",
"  V h h h h h h h h h h h h h h h h h h h h h h h h h h h h h h h h h h h h h h h h h h h h m   ",
"  V h h h h h h h h h h h h h h h h h h h h h h h h h h h h h h h h h h h h h h h h h h h h m   ",
"  V h h h h h h h h h h h h h h h h h h h h h h h h h h h h h h h h h h h h h h h h h h h h m   ",
"  V h h h h h h h h h h h h h h h h h h h h h h h h h h h h h h h h h h h h h h h h h h h h m   ",
"  V h h h h h h h h h h h h h h h h h h h h h h h h h h h h h h h h h h h h h h h h h h h h m   ",
"  V h h h h h h h h h h h h h h h h h h h h h h h h h h h h h h h h h h h h h h h h h h h h m   ",
"  V h h h h h h h h h h h h h h h h h h h h h h h h h h h h h h h h h h h h h h h h h h h h m   ",
"  V h h h h h h h h h h h h h h h h h h h h h h h h h h h h h h h h h h h h h h h h h h h h m   ",
"  V h h h h h h h h h h h h h h h h h h h h h h h h h h h h h h h h h h h h h h h h h h h h m   ",
"  V h h h h h h h h h h h h h h h h h h h h h h h h h h h h h h h h h h h h h h h h h h h h m   ",
"  V h h h h h h h h h h h h h h h h h h h h h h h h h h h h h h h h h h h h h h h h h h h h m   ",
"  V h h h h h h h h h h h h h h h h h h h h h h h h h h h h h h h h h h h h h h h h h h h h m   ",
"  V h h h h h h h h h h h h h h h h h h h h h h h h h h h h h h h h h h h h h h h h h h h h m   ",
"  V h h h h h h h h h h h h h h h h h h h h h h h h h h h h h h h h h h h h h h h h h h h h m   ",
"  V h h h h h h h h h h h h h h h h h h h h h h h h h h h h h h h h h h h h h h h h h h h h m   ",
"  V h h h h h h h h h h h h h h h h h h h h h h h h h h h h h h h h h h h h h h h h h h h h m   ",
"  V h h h h h h h h h h h h h h h h h h h h h h h h h h h h h h h h h h h h h h h h h h h h m   ",
"  V h h h h h h h h h h h h h h h h h h h h h h h h h h h h h h h h h h h h h h h h h h h h m   ",
"  V h h h h h h h h h h h h h h h h h h h h h h h h h h h h h h h h h h h h h h h h h h h h m   ",
"  V h h h h h h h h h h h h h h h h h h h h h h h h h h h h h h h h h h h h h h h h h h h h m   ",
"  V h h h h h h h h h h h h h h h h h h h h h h h h h h h h h h h h h h h h h h h h h h h h m   ",
"  V h h h h h h h h h h h h h h h h h h h h h h h h h h h h h h h h h h h h h h h h h h h h m   ",
"  V h h h h h h h h h h h h h h h h h h h h h h h h h h h h h h h h h h h h h h h h h h h h m   ",
"  V h h h h h h h h h h h h h h h h h h h h h h h h h h h h h h h h h h h h h h h h h h h h m   ",
"  V h h h h h h h h h h h h h h h h h h h h h h h h h h h h h h h h h h h h h h h h h h h h m   ",
"  V h h h h h h h h h h h h h h h h h h h h h h h h h h h h h h h h h h h h h h h h h h h h m   ",
"  V h h h h h h h h h h h h h h h h h h h h h h h h h h h h h h h h h h h h h h h h h h h h m   ",
"  V h h h h h h h h h h h h h h h h h h h h h h h h h h h h h h h h h h h h h h h h h h h h m   ",
"  V h h h h h h h h h h h h h h h h h h h h h h h h h h h h h h h h h h h h h h h h h h h h m   ",
"  V h h h h h h h h h h h h h h h h h h h h h h h h h h h h h h h h h h h h h h h h h h h h m   ",
"  V h h h h h h h h h h h h h h h h h h h h h h h h h h h h h h h h h h h h h h h h h h h h m   ",
"  V h h h h h h h h h h h h h h h h h h h h h h h h h h h h h h h h h h h h h h h h h h h h m   ",
"  &.*.*.*.*.*.*.*.*.*.*.*.*.*.*.*.*.*.*.*.*.*.*.*.*.*.*.*.*.*.*.*.*.*.*.*.*.*.*.*.*.*.*.*.*.=.  ",
"  -.;.;.;.;.;.;.;.;.;.;.;.;.;.;.;.;.;.;.;.;.;.;.;.;.;.;.;.;.;.;.;.;.;.;.;.;.;.;.;.;.;.;.;.;.>.  ",
"  ,.'.'.'.'.'.'.'.'.'.'.'.'.'.'.'.'.'.'.'.'.'.'.'.'.'.'.'.'.'.'.'.'.'.'.'.'.'.'.'.'.'.'.'.'.).  ",
"  ,.'.'.'.'.'.'.'.'.'.'.'.'.'.'.'.'.'.'.'.'.'.'.'.'.'.'.'.'.'.'.'.'.'.'.'.'.'.'.'.'.'.'.'.'.).  ",
"  ,.'.'.'.'.'.'.'.'.'.'.'.'.'.'.'.'.'.'.'.'.'.'.'.'.'.'.'.'.'.'.'.'.'.'.'.'.'.'.'.'.'.'.'.'.).  ",
"  ,.'.'.'.'.'.'.'.'.'.'.'.'.'.'.'.'.'.'.'.'.'.'.'.'.'.'.'.'.'.'.'.'.'.'.'.'.'.'.'.'.'.'.'.'.).  ",
"  ,.'.'.'.'.'.'.'.'.'.'.'.'.'.'.'.'.'.'.'.'.'.'.'.'.'.'.'.'.'.'.'.'.'.'.'.'.'.'.'.'.'.'.'.'.).  ",
"  ,.'.'.'.'.'.'.'.'.'.'.'.'.'.'.'.'.'.'.'.'.'.'.'.'.'.'.'.'.'.'.'.'.'.'.'.'.'.'.'.'.'.'.'.'.).  ",
"  ,.'.'.'.'.'.'.'.'.'.'.'.'.'.'.'.'.'.'.'.'.'.'.'.'.'.'.'.'.'.'.'.'.'.'.'.'.'.'.'.'.'.'.'.'.).  ",
"  ,.'.'.'.'.'.'.'.'.'.'.'.'.'.'.'.'.'.'.'.'.'.'.'.'.'.'.'.'.'.'.'.'.'.'.'.'.'.'.'.'.'.'.'.'.).  ",
"  ,.'.'.'.'.'.'.'.'.'.'.'.'.'.'.'.'.'.'.'.'.'.'.'.'.'.'.'.'.'.'.'.'.'.'.'.'.'.'.'.'.'.'.'.'.).  ",
"  ,.'.'.'.'.'.'.'.'.'.'.'.'.'.'.'.'.'.'.'.'.'.'.'.'.'.'.'.'.'.'.'.'.'.'.'.'.'.'.'.'.'.'.'.'.).  ",
"  ,.'.'.'.'.'.'.'.'.'.'.'.'.'.'.'.'.'.'.'.'.'.'.'.'.'.'.'.'.'.'.'.'.'.'.'.'.'.'.'.'.'.'.'.'.).  ",
"  ,.'.'.'.'.'.'.'.'.'.'.'.'.'.'.'.'.'.'.'.'.'.'.'.'.'.'.'.'.'.'.'.'.'.'.'.'.'.'.'.'.'.'.'.'.).  ",
"  ,.'.'.'.'.'.'.'.'.'.'.'.'.'.'.'.'.'.'.'.'.'.'.'.'.'.'.'.'.'.'.'.'.'.'.'.'.'.'.'.'.'.'.'.'.).  ",
"  ,.'.'.'.'.'.'.'.'.'.'.'.'.'.'.'.'.'.'.'.'.'.'.'.'.'.'.'.'.'.'.'.'.'.'.'.'.'.'.'.'.'.'.'.'.).  ",
"  ,.'.'.'.'.'.'.'.'.'.'.'.'.'.'.'.'.'.'.'.'.'.'.'.'.'.'.'.'.'.'.'.'.'.'.'.'.'.'.'.'.'.'.'.'.).  ",
"  ,.'.'.'.'.'.'.'.'.'.'.'.'.'.'.'.'.'.'.'.'.'.'.'.'.'.'.'.'.'.'.'.'.'.'.'.'.'.'.'.'.'.'.'.'.).  ",
"  ,.'.'.'.'.'.'.'.'.'.'.'.'.'.'.'.'.'.'.'.'.'.'.'.'.'.'.'.'.'.'.'.'.'.'.'.'.'.'.'.'.'.'.'.'.).  ",
"  ,.'.'.'.'.'.'.'.'.'.'.'.'.'.'.'.'.'.'.'.'.'.'.'.'.'.'.'.'.'.'.'.'.'.'.'.'.'.'.'.'.'.'.'.'.).  ",
"  ,.'.'.'.'.'.'.'.'.'.'.'.'.'.'.'.'.'.'.'.'.'.'.'.'.'.'.'.'.'.'.'.'.'.'.'.'.'.'.'.'.'.'.'.'.).  ",
"  ,.'.'.'.'.'.'.'.'.'.'.'.'.'.'.'.'.'.'.'.'.'.'.'.'.'.'.'.'.'.'.'.'.'.'.'.'.'.'.'.'.'.'.'.'.).  ",
"  ,.'.'.'.'.'.'.'.'.'.'.'.'.'.'.'.'.'.'.'.'.'.'.'.'.'.'.'.'.'.'.'.'.'.'.'.'.'.'.'.'.'.'.'.'.).  ",
"  ,.'.'.'.'.'.'.'.'.'.'.'.'.'.'.'.'.'.'.'.'.'.'.'.'.'.'.'.'.'.'.'.'.'.'.'.'.'.'.'.'.'.'.'.'.).  ",
"  ,.'.'.'.'.'.'.'.'.'.'.'.'.'.'.'.'.'.'.'.'.'.'.'.'.'.'.'.'.'.'.'.'.'.'.'.'.'.'.'.'.'.'.'.'.).  ",
"  ,.'.'.'.'.'.'.'.'.'.'.'.'.'.'.'.'.'.'.'.'.'.'.'.'.'.'.'.'.'.'.'.'.'.'.'.'.'.'.'.'.'.'.'.'.).  ",
"  ,.'.'.'.'.'.'.'.'.'.'.'.'.'.'.'.'.'.'.'.'.'.'.'.'.'.'.'.'.'.'.'.'.'.'.'.'.'.'.'.'.'.'.'.'.).  ",
"  ,.'.'.'.'.'.'.'.'.'.'.'.'.'.'.'.'.'.'.'.'.'.'.'.'.'.'.'.'.'.'.'.'.'.'.'.'.'.'.'.'.'.'.'.'.).  ",
"  ,.'.'.'.'.'.'.'.'.'.'.'.'.'.'.'.'.'.'.'.'.'.'.'.'.'.'.'.'.'.'.'.'.'.'.'.'.'.'.'.'.'.'.'.'.).  ",
"  ,.'.'.'.'.'.'.'.'.'.'.'.'.'.'.'.'.'.'.'.'.'.'.'.'.'.'.'.'.'.'.'.'.'.'.'.'.'.'.'.'.'.'.'.'.).  ",
"  ,.'.'.'.'.'.'.'.'.'.'.'.'.'.'.'.'.'.'.'.'.'.'.'.'.'.'.'.'.'.'.'.'.'.'.'.'.'.'.'.'.'.'.'.'.).  ",
"  ,.'.'.'.'.'.'.'.'.'.'.'.'.'.'.'.'.'.'.'.'.'.'.'.'.'.'.'.'.'.'.'.'.'.'.'.'.'.'.'.'.'.'.'.'.).  ",
"  ,.'.'.'.'.'.'.'.'.'.'.'.'.'.'.'.'.'.'.'.'.'.'.'.'.'.'.'.'.'.'.'.'.'.'.'.'.'.'.'.'.'.'.'.'.).  ",
"  ,.'.'.'.'.'.'.'.'.'.'.'.'.'.'.'.'.'.'.'.'.'.'.'.'.'.'.'.'.'.'.'.'.'.'.'.'.'.'.'.'.'.'.'.'.).  ",
"  ,.'.'.'.'.'.'.'.'.'.'.'.'.'.'.'.'.'.'.'.'.'.'.'.'.'.'.'.'.'.'.'.'.'.'.'.'.'.'.'.'.'.'.'.'.).  ",
"  ,.'.'.'.'.'.'.'.'.'.'.'.'.'.'.'.'.'.'.'.'.'.'.'.'.'.'.'.'.'.'.'.'.'.'.'.'.'.'.'.'.'.'.'.'.).  ",
"  ,.'.'.'.'.'.'.'.'.'.'.'.'.'.'.'.'.'.'.'.'.'.'.'.'.'.'.'.'.'.'.'.'.'.'.'.'.'.'.'.'.'.'.'.'.).  ",
"  !.~.~.~.~.~.~.~.~.~.~.~.~.~.~.~.~.~.~.~.~.~.~.~.~.~.~.~.~.~.~.~.~.~.~.~.~.~.~.~.~.~.~.~.~.{.  ",
"].].].].].].].].].].].].].].].].].].].].].].].].].].].].].].].].].].].].].].].].].].].].].].].]."};
