/* XPM */
static char * homerbrasbas_xpm[] = {
"48 140 112 2",
"  	c #686868",
". 	c #000000",
"+ 	c #5A5A5A",
"@ 	c #626262",
"# 	c #5F5F5F",
"$ 	c #EAEAEA",
"% 	c #FFFFFF",
"& 	c #F8F8F8",
"* 	c #393939",
"= 	c #3E3E3E",
"- 	c #3C3C3C",
"; 	c #7E6E09",
"> 	c #897809",
", 	c #867509",
"' 	c #E5C910",
") 	c #FADB11",
"! 	c #F4D511",
"~ 	c #D5BA0E",
"{ 	c #E8CB10",
"] 	c #E2C60F",
"^ 	c #C7AE0E",
"/ 	c #D8BE0F",
"( 	c #A18D0B",
"_ 	c #0B0901",
": 	c #2E2903",
"< 	c #7D6E09",
"[ 	c #3F3704",
"} 	c #6C5E07",
"| 	c #D3B90E",
"1 	c #BAA30D",
"2 	c #0C0B01",
"3 	c #362F04",
"4 	c #907F0A",
"5 	c #494005",
"6 	c #7C6D08",
"7 	c #F6D711",
"8 	c #F9DA11",
"9 	c #E7CA0F",
"0 	c #685B07",
"a 	c #F7D911",
"b 	c #F8D911",
"c 	c #F7D811",
"d 	c #CFB50C",
"e 	c #F4D610",
"f 	c #F3D510",
"g 	c #C4AB0B",
"h 	c #797979",
"i 	c #FADC30",
"j 	c #FADB1D",
"k 	c #FADB26",
"l 	c #F9DB31",
"m 	c #DFC42C",
"n 	c #7F7F7F",
"o 	c #FADC31",
"p 	c #FADB17",
"q 	c #FADB18",
"r 	c #E5C92A",
"s 	c #FADC34",
"t 	c #FADB12",
"u 	c #FADB1A",
"v 	c #E7CB2F",
"w 	c #FADD46",
"x 	c #FADB14",
"y 	c #FADB16",
"z 	c #FADB1F",
"A 	c #EACE2C",
"B 	c #FBE16A",
"C 	c #FADB13",
"D 	c #DEC437",
"E 	c #ECCE0F",
"F 	c #362F03",
"G 	c #3B3B3B",
"H 	c #D5BE4C",
"I 	c #F3D628",
"J 	c #F9DB25",
"K 	c #FADB24",
"L 	c #FADC26",
"M 	c #FADB21",
"N 	c #FADE4C",
"O 	c #FBE483",
"P 	c #CFB741",
"Q 	c #9D8A0B",
"R 	c #AC960C",
"S 	c #7F7009",
"T 	c #080701",
"U 	c #252003",
"V 	c #635707",
"W 	c #978309",
"X 	c #120F01",
"Y 	c #080808",
"Z 	c #564A02",
"` 	c #988512",
" .	c #B9A222",
"..	c #C9B236",
"+.	c #D0B94F",
"@.	c #BBA750",
"#.	c #9B8D54",
"$.	c #606060",
"%.	c #202020",
"&.	c #181502",
"*.	c #1B1702",
"=.	c #141101",
"-.	c #010100",
";.	c #060500",
">.	c #0F0D01",
",.	c #161302",
"'.	c #020100",
").	c #050505",
"!.	c #060606",
"~.	c #0D0D0D",
"{.	c #111111",
"].	c #030303",
"                                                                                                ",
". + @ @ @ @ @ @ @ @ @ @ @ @ @ @ @ @ @ @ @ @ @ @ @ @ @ @ @ @ @ @ @ @ @ @ @ @ @ @ @ @ @ @ @ @ # . ",
". $ % % % % % % % % % % % % % % % % % % % % % % % % % % % % % % % % % % % % % % % % % % % % & . ",
". $ % % % % % % % % % % % % % % % % % % % % % % % % % % % % % % % % % % % % % % % % % % % % & . ",
". $ % % % % % % % % % % % % % % % % % % % % % % % % % % % % % % % % % % % % % % % % % % % % & . ",
". $ % % % % % % % % % % % % % % % % % % % % % % % % % % % % % % % % % % % % % % % % % % % % & . ",
". $ % % % % % % % % % % % % % % % % % % % % % % % % % % % % % % % % % % % % % % % % % % % % & . ",
". $ % % % % % % % % % % % % % % % % % % % % % % % % % % % % % % % % % % % % % % % % % % % % & . ",
". $ % % % % % % % % % % % % % % % % % % % % % % % % % % % % % % % % % % % % % % % % % % % % & . ",
". $ % % % % % % % % % % % % % % % % % % % % % % % % % % % % % % % % % % % % % % % % % % % % & . ",
". $ % % % % % % % % % % % % % % % % % % % % % % % % % % % % % % % % % % % % % % % % % % % % & . ",
". $ % % % % % % % % % % % % % % % % % % % % % % % % % % % % % % % % % % % % % % % % % % % % & . ",
". $ % % % % % % % % % % % % % % % % % % % % % % % % % % % % % % % % % % % % % % % % % % % % & . ",
". $ % % % % % % % % % % % % % % % % % % % % % % % % % % % % % % % % % % % % % % % % % % % % & . ",
". $ % % % % % % % % % % % % % % % % % % % % % % % % % % % % % % % % % % % % % % % % % % % % & . ",
". $ % % % % % % % % % % % % % % % % % % % % % % % % % % % % % % % % % % % % % % % % % % % % & . ",
". $ % % % % % % % % % % % % % % % % % % % % % % % % % % % % % % % % % % % % % % % % % % % % & . ",
". $ % % % % % % % % % % % % % % % % % % % % % % % % % % % % % % % % % % % % % % % % % % % % & . ",
". $ % % % % % % % % % % % % % % % % % % % % % % % % % % % % % % % % % % % % % % % % % % % % & . ",
". $ % % % % % % % % % % % % % % % % % % % % % % % % % % % % % % % % % % % % % % % % % % % % & . ",
". $ % % % % % % % % % % % % % % % % % % % % % % % % % % % % % % % % % % % % % % % % % % % % & . ",
". $ % % % % % % % % % % % % % % % % % % % % % % % % % % % % % % % % % % % % % % % % % % % % & . ",
". $ % % % % % % % % % % % % % % % % % % % % % % % % % % % % % % % % % % % % % % % % % % % % & . ",
". $ % % % % % % % % % % % % % % % % % % % % % % % % % % % % % % % % % % % % % % % % % % % % & . ",
". $ % % % % % % % % % % % % % % % % % % % % % % % % % % % % % % % % % % % % % % % % % % % % & . ",
". $ % % % % % % % % % % % % % % % % % % % % % % % % % % % % % % % % % % % % % % % % % % % % & . ",
". $ % % % % % % % % % % % % % % % % % % % % % % % % % % % % % % % % % % % % % % % % % % % % & . ",
". $ % % % % % % % % % % % % % % % % % % % % % % % % % % % % % % % % % % % % % % % % % % % % & . ",
". $ % % % % % % % % % % % % % % % % % % % % % % % % % % % % % % % % % % % % % % % % % % % % & . ",
". $ % % % % % % % % % % % % % % % % % % % % % % % % % % % % % % % % % % % % % % % % % % % % & . ",
". $ % % % % % % % % % % % % % % % % % % % % % % % % % % % % % % % % % % % % % % % % % % % % & . ",
". $ % % % % % % % % % % % % % % % % % % % % % % % % % % % % % % % % % % % % % % % % % % % % & . ",
". $ % % % % % % % % % % % % % % % % % % % % % % % % % % % % % % % % % % % % % % % % % % % % & . ",
". $ % % % % % % % % % % % % % % % % % % % % % % % % % % % % % % % % % % % % % % % % % % % % & . ",
". $ % % % % % % % % % % % % % % % % % % % % % % % % % % % % % % % % % % % % % % % % % % % % & . ",
". $ % % % % % % % % % % % % % % % % % % % % % % % % % % % % % % % % % % % % % % % % % % % % & . ",
". $ % % % % % % % % % % % % % % % % % % % % % % % % % % % % % % % % % % % % % % % % % % % % & . ",
". * = = = = = = = = = = = = = = = = = = = = = = = = = = = = = = = = = = = = = = = = = = = = - . ",
". ; > > > > > > > > > > > > > > > > > > > > > > > > > > > > > > > > > > > > > > > > > > > > , . ",
". ' ) ) ) ) ) ) ) ) ) ) ) ) ) ) ) ) ) ) ) ) ) ) ) ) ) ) ) ) ) ) ) ) ) ) ) ) ) ) ) ) ) ) ) ) ! . ",
". ' ) ) ) ) ) ) ) ) ) ) ) ) ) ) ) ) ) ) ) ) ) ) ) ) ) ) ) ) ) ) ) ) ) ) ) ) ) ) ) ) ) ) ) ) ! . ",
". ' ) ) ) ) ) ) ) ) ) ) ) ) ) ) ) ) ) ) ) ) ) ) ) ) ) ) ) ) ) ) ) ) ) ) ) ) ) ) ) ) ) ) ) ) ! . ",
". ' ) ) ) ) ) ) ) ) ) ) ) ) ) ) ) ) ) ) ) ) ) ) ) ) ) ) ) ) ) ) ) ) ) ) ) ) ) ) ) ) ) ) ) ) ! . ",
". ' ) ) ) ) ) ) ) ) ) ) ) ) ) ) ) ) ) ) ) ) ) ) ) ) ) ) ) ) ) ) ) ) ) ) ) ) ) ) ) ) ) ) ) ) ! . ",
". ' ) ) ) ) ) ) ) ) ) ) ) ) ) ) ) ) ) ) ) ) ) ) ) ) ) ) ) ) ) ) ) ) ) ) ) ) ) ) ) ) ) ) ) ) ! . ",
". ' ) ) ) ) ) ) ) ) ) ) ) ) ) ) ) ) ) ) ) ) ) ) ) ) ) ) ) ) ) ) ) ) ) ) ) ) ) ) ) ) ) ) ) ) ! . ",
". ' ) ) ) ) ) ) ) ) ) ) ) ) ) ) ) ) ) ) ) ) ) ) ) ) ) ) ) ) ) ) ) ) ) ) ) ) ) ) ) ) ) ) ) ) ! . ",
". ' ) ) ) ) ) ) ) ) ) ) ) ) ) ) ) ) ) ) ) ) ) ) ) ) ) ) ) ) ) ) ) ) ) ) ) ) ) ) ) ) ) ) ) ) ! . ",
". ' ) ) ) ) ) ) ) ) ) ) ) ) ) ) ) ) ) ) ) ) ) ) ) ) ) ) ) ) ) ) ) ) ) ) ) ) ) ) ) ) ) ) ) ) ! . ",
". ' ) ) ) ) ) ) ) ) ) ) ) ) ) ) ) ) ) ) ) ) ) ) ) ) ) ) ) ) ) ) ) ) ) ) ) ) ) ) ) ) ) ) ) ) ! . ",
". ' ) ) ) ) ) ) ) ) ) ) ) ) ) ) ) ) ) ) ) ) ) ) ) ) ) ) ) ) ) ) ) ) ) ) ) ) ) ) ) ) ) ) ) ) ! . ",
". ' ) ) ) ) ) ) ) ) ) ) ) ) ) ) ) ) ) ) ) ) ) ) ) ) ) ) ) ) ) ) ) ) ) ) ) ) ) ) ) ) ) ) ) ) ! . ",
". ' ) ) ) ) ) ) ) ) ) ) ) ) ) ) ) ) ) ) ) ) ) ) ) ) ) ) ) ) ) ) ) ) ) ) ) ) ) ) ) ) ) ) ) ) ! . ",
". ' ) ) ) ) ) ) ) ) ) ) ) ) ) ) ) ) ) ) ) ) ) ) ) ) ) ) ) ) ) ) ) ) ) ) ) ) ) ) ) ) ) ) ) ) ! . ",
". ' ) ) ) ) ) ) ) ) ) ) ) ) ) ) ) ) ) ) ) ) ) ) ) ) ) ) ) ) ) ) ) ) ) ) ) ) ) ) ) ) ) ) ) ) ! . ",
". ' ) ) ) ) ) ) ) ) ) ) ) ) ) ) ) ) ) ) ) ) ) ) ) ) ) ) ) ) ) ) ) ) ) ) ) ) ) ) ) ) ) ) ) ) ! . ",
". ' ) ) ) ) ) ) ) ) ) ) ) ) ) ) ) ) ) ) ) ) ) ) ) ) ) ) ) ) ) ) ) ) ) ) ) ) ) ) ) ) ) ) ) ) ! . ",
". ' ) ) ) ) ) ) ) ) ) ) ) ) ) ) ) ) ) ) ) ) ) ) ) ) ) ) ) ) ) ) ) ) ) ) ) ) ) ) ) ) ) ) ) ) ! . ",
". ' ) ) ) ) ) ) ) ) ) ) ) ) ) ) ) ) ) ) ) ) ) ) ) ) ) ) ) ) ) ) ) ) ) ) ) ) ) ) ) ) ) ) ) ) ! . ",
". ' ) ) ) ) ) ) ) ) ) ) ) ) ) ) ) ) ) ) ) ) ) ) ) ) ) ) ) ) ) ) ) ) ) ) ) ) ) ) ) ) ) ) ) ) ! . ",
". ' ) ) ) ) ) ) ) ) ) ) ) ) ) ) ) ) ) ) ) ) ) ) ) ) ) ) ) ) ) ) ) ) ) ) ) ) ) ) ) ) ) ) ) ) ! . ",
". ' ) ) ) ) ) ) ) ) ) ) ) ) ) ) ) ) ) ) ) ) ) ) ) ) ) ) ) ) ) ) ) ) ) ) ) ) ) ) ) ) ) ) ) ) ! . ",
". ' ) ) ) ) ) ) ) ) ) ) ) ) ) ) ) ) ) ) ) ) ) ) ) ) ) ) ) ) ) ) ) ) ) ) ) ) ) ) ) ) ) ) ) ) ! . ",
". ' ) ) ) ) ) ) ) ) ) ) ) ) ) ) ) ) ) ) ) ) ) ) ) ) ) ) ) ) ) ) ) ) ) ) ) ) ) ) ) ) ) ) ) ) ! . ",
". ' ) ) ) ) ) ) ) ) ) ) ) ) ) ) ) ) ) ) ) ) ) ) ) ) ) ) ) ) ) ) ) ) ) ) ) ) ) ) ) ) ) ) ) ) ! . ",
". ' ) ) ) ) ) ) ) ) ) ) ) ) ) ) ) ) ) ) ) ) ) ) ) ) ) ) ) ) ) ) ) ) ) ) ) ) ) ) ) ) ) ) ) ) ! . ",
". ' ) ) ) ) ) ) ) ) ) ) ) ) ) ) ) ) ) ) ) ) ) ) ) ) ) ) ) ) ) ) ) ) ) ) ) ) ) ) ) ) ) ) ) ) ! . ",
". ' ) ) ) ) ) ) ) ) ) ) ) ) ) ) ) ) ) ) ) ) ) ) ) ) ) ) ) ) ) ) ) ) ) ) ) ) ) ) ) ) ) ) ) ) ! . ",
". ' ) ) ) ) ) ) ) ) ) ) ) ) ) ) ) ) ) ) ) ) ) ) ) ) ) ) ) ) ) ) ) ) ) ) ) ) ) ) ) ) ) ) ) ) ! . ",
". ' ) ) ) ) ) ) ) ) ) ) ) ) ) ) ) ) ) ) ) ) ) ) ) ) ) ) ) ) ) ) ) ) ) ) ) ) ) ) ) ) ) ) ) ) ! . ",
". ' ) ) ) ) ) ) ) ) ) ) ) ) ) ) ) ) ) ) ) ) ) ) ) ) ) ) ) ) ) ) ) ) ) ) ) ) ) ) ) ) ) ) ) ) ! . ",
". ' ) ) ) ) ) ) ) ) ) ) ) ) ) ) ) ) ) ) ) ) ) ) ) ) ) ) ) ) ) ) ) ) ) ) ) ) ) ) ) ) ) ) ) ) ! . ",
". ' ) ) ) ) ) ) ) ) ) ) ) ) ) ) ) ) ) ) ) ) ) ) ) ) ) ) ) ) ) ) ) ) ) ) ) ) ) ) ) ) ) ) ) ) ! . ",
". ' ) ) ) ) ) ) ) ) ) ) ) ) ) ) ) ) ) ) ) ) ) ) ) ) ) ) ) ) ) ) ) ) ) ) ) ) ) ) ) ) ) ) ) ) ! . ",
". ' ) ) ) ) ) ) ) ) ) ) ) ) ) ) ) ) ) ) ) ) ) ) ) ) ) ) ) ) ) ) ) ) ) ) ) ) ) ) ) ) ) ) ) ) ! . ",
". ' ) ) ) ) ) ) ) ) ) ) ) ) ) ) ) ) ) ) ) ) ) ) ) ) ) ) ) ) ) ) ) ) ) ) ) ) ) ) ) ) ) ) ) ) ! . ",
". ' ) ) ) ) ) ) ) ) ) ) ) ) ) ) ) ) ) ) ) ) ) ) ) ) ) ) ) ) ) ) ) ) ) ) ) ) ) ) ) ) ) ) ) ) ! . ",
". ' ) ) ) ) ) ) ) ) ) ) ) ) ) ) ) ) ) ) ) ) ) ) ) ) ) ) ) ) ) ) ) ) ) ) ) ) ) ) ) ) ) ) ) ) ! . ",
". ' ) ) ) ) ) ) ) ) ) ) ) ) ) ) ) ) ) ) ) ) ) ) ) ) ) ) ) ) ) ) ) ) ) ) ) ) ) ) ) ) ) ) ) ) ! . ",
". ' ) ) ) ) ) ) ) ) ) ) ) ) ) ) ) ) ) ) ) ) ) ) ) ) ) ) ) ) ) ) ) ) ) ) ) ) ) ) ) ) ) ) ) ) ! . ",
". ' ) ) ) ) ) ) ) ) ) ) ) ) ) ) ) ) ) ) ) ) ) ) ) ) ) ) ) ) ) ) ) ) ) ) ) ) ) ) ) ) ) ) ) ) ! . ",
". ' ) ) ) ) ) ) ) ) ) ) ) ) ) ) ) ) ) ) ) ) ) ) ) ) ) ) ) ) ) ) ) ) ) ) ) ) ) ) ) ) ) ) ) ) ! . ",
". ' ) ) ) ) ) ) ) ) ) ) ) ) ) ) ) ) ) ) ) ) ) ) ) ) ) ) ) ) ) ) ) ) ) ) ) ) ) ) ) ) ) ) ) ) ! . ",
". ' ) ) ) ) ) ) ) ) ) ) ) ) ) ) ) ) ) ) ) ) ) ) ) ) ) ) ) ) ) ) ) ) ) ) ) ) ) ) ) ) ) ) ) ) ! . ",
". ' ) ) ) ) ) ) ) ) ) ) ) ) ) ) ) ) ) ) ) ) ) ) ) ) ) ) ) ) ) ) ) ) ) ) ) ) ) ) ) ) ) ) ) ) ! . ",
". ' ) ) ) ) ) ) ) ) ) ) ) ) ) ) ) ) ) ) ) ) ) ) ) ) ) ) ) ) ) ) ) ) ) ) ) ) ) ) ) ) ) ) ) ) ! . ",
". ' ) ) ) ) ) ) ) ) ) ) ) ) ) ) ) ) ) ) ) ) ) ) ) ) ) ) ) ) ) ) ) ) ) ) ) ) ) ) ) ) ) ) ) ) ! . ",
". ' ) ) ) ) ) ) ) ) ) ) ) ) ) ) ) ) ) ) ) ) ) ) ) ) ) ) ) ) ) ) ) ) ) ) ) ) ) ) ) ) ) ) ) ) ! . ",
". ' ) ) ) ) ) ) ) ) ) ) ) ) ) ) ) ) ) ) ) ) ) ) ) ) ) ) ) ) ) ) ) ) ) ) ) ) ) ) ) ) ) ) ) ) ! . ",
". ' ) ) ) ) ) ) ) ) ) ) ) ) ) ) ) ) ) ) ) ) ) ) ) ) ) ) ) ) ) ) ) ) ) ) ) ) ) ) ) ) ) ) ) ) ! . ",
". ' ) ) ) ) ) ) ) ) ) ) ) ) ) ) ) ) ) ) ) ) ) ) ) ) ) ) ) ) ) ) ) ) ) ) ) ) ) ) ) ) ) ) ) ) ! . ",
". ' ) ) ) ) ) ) ) ) ) ) ) ) ) ) ) ) ) ) ) ) ) ) ) ) ) ) ) ) ) ) ) ) ) ) ) ) ) ) ) ) ) ) ) ) ! . ",
". ' ) ) ) ) ) ) ) ) ) ) ) ) ) ) ) ) ) ) ) ) ) ) ) ) ) ) ) ) ) ) ) ) ) ) ) ) ) ) ) ) ) ) ) ) ! . ",
". ' ) ) ) ) ) ) ) ) ) ) ) ) ) ) ) ) ) ) ) ) ) ) ) ) ) ) ) ) ) ) ) ) ) ) ) ) ) ) ) ) ) ) ) ) ! . ",
". ' ) ) ) ) ) ) ) ) ) ) ) ) ) ) ) ) ) ) ) ) ) ) ) ) ) ) ) ) ) ) ) ) ) ) ) ) ) ) ) ) ) ) ) ) ! . ",
". ' ) ) ) ) ) ) ) ) ) ) ) ) ) ) ) ) ) ) ) ) ) ) ) ) ) ) ) ) ) ) ) ) ) ) ) ) ) ) ) ) ) ) ) ) ! . ",
". ' ) ) ) ) ) ) ) ) ) ) ) ) ) ) ) ) ) ) ) ) ) ) ) ) ) ) ) ) ) ) ) ) ) ) ) ) ) ) ) ) ) ) ) ) ! . ",
". ' ) ) ) ) ) ) ) ) ) ) ) ) ) ) ) ) ) ) ) ) ) ) ) ) ) ) ) ) ) ) ) ) ) ) ) ) ) ) ) ) ) ) ) ) ! . ",
". ' ) ) ) ) ) ) ) ) ) ) ) ) ) ) ) ) ) ) ) ) ) ) ) ) ) ) ) ) ) ) ) ) ) ) ) ) ) ) ) ) ) ) ) ) ! . ",
". ' ) ) ) ) ) ) ) ) ) ) ) ) ) ) ) ) ) ) ) ) ) ) ) ) ) ) ) ) ) ) ) ) ) ) ) ) ) ) ) ) ) ) ) ) ! . ",
". ' ) ) ) ) ) ) ) ) ) ) ) ) ) ) ) ) ) ) ) ) ) ) ) ) ) ) ) ) ) ) ) ) ) ) ) ) ) ) ) ) ) ) ) ) ! . ",
". ' ) ) ) ) ) ) ) ) ) ) ) ) ) ) ) ) ) ) ) ) ) ) ) ) ) ) ) ) ) ) ) ) ) ) ) ) ) ) ) ) ) ) ) ) ! . ",
". ' ) ) ) ) ) ) ) ) ) ) ) ) ) ) ) ) ) ) ) ) ) ) ) ) ) ) ) ) ) ) ) ) ) ) ) ) ) ) ) ) ) ) ) ) ! . ",
". ' ) ) ) ) ) ) ) ) ) ) ) ) ) ) ) ) ) ) ) ) ) ) ) ) ) ) ) ) ) ) ) ) ) ) ) ) ) ) ) ) ) ) ) ) ! . ",
". ' ) ) ) ) ) ) ) ) ) ) ) ) ) ) ) ) ) ) ) ) ) ) ) ) ) ) ) ) ) ) ) ) ) ) ) ) ) ) ) ) ) ) ) ) ! . ",
". ' ) ) ) ) ) ) ) ) ) ) ) ) ) ) ) ) ) ) ) ) ) ) ) ) ) ) ) ) ) ) ) ) ) ) ) ) ) ) ) ) ) ) ) ) ! . ",
". ' ) ) ) ) ) ) ) ) ) ) ) ) ) ) ) ) ) ) ) ) ) ) ) ) ) ) ) ) ) ) ) ) ) ) ) ) ) ) ) ) ) ) ) ) ! . ",
". ' ) ) ) ) ) ) ) ) ) ) ) ) ) ) ) ) ) ) ) ) ) ) ) ) ) ) ) ) ) ) ) ) ) ) ) ) ) ) ) ) ) ) ) ) ! . ",
". ' ) ) ) ) ) ) ) ) ) ) ) ) ) ) ) ) ) ) ) ) ) ) ) ) ) ) ) ) ) ) ) ) ) ) ) ) ) ) ) ) ) ) ) ) ! . ",
". ' ) ) ) ) ) ) ) ) ) ) ) ) ) ) ) ) ) ) ) ) ) ) ) ) ) ) ) ) ) ) ) ) ) ) ) ) ) ) ) ) ) ) ) ) ! . ",
". ' ) ) ) ) ) ) ) ) ) ) ) ) ) ) ) ) ) ) ) ) ) ) ) ) ) ) ) ) ) ) ) ) ) ) ) ) ) ) ) ) ) ) ) ) ! . ",
". ' ) ) ) ) ) ) ) ) ) ) ) ) ) ) ) ) ) ) ) ) ) ) ) ) ) ) ) ) ) ) ) ) ) ) ) ) ) ) ) ) ) ) ) ) ! . ",
". ' ) ) ) ) ) ) ) ) ) ) ) ) ) ) ) ) ) ) ) ) ) ) ) ) ) ) ) ) ) ) ) ) ) ) ) ) ) ) ) ) ) ) ) ) ! . ",
". ~ { { { { { { { { { { { { { { { { { { { { { { { { { { { { { { { { { { { { { { { { { { { { ] . ",
". . . . . . . . . . . . . . . . . . . . . . . . . . . . . . . . . . . . . . . . . . . . . . . . ",
". ^ / / / / / / / / ( _ / / / / / / / / / / : < / / / / / / / / / / [ } / / / / / / / / / / | . ",
". ' ) ) ) ) ) ) ) ) 1 2 ) ) ) ) ) ) ) ) ) ) 3 4 ) ) ) ) ) ) ) ) ) ) 5 6 ) ) ) ) ) ) ) ) ) ) ! . ",
". ' ) ) ) ) ) ) ) ) 1 2 ) ) ) ) ) ) ) ) ) ) 3 4 ) ) ) ) ) ) ) ) ) ) 5 6 ) ) ) ) ) ) ) ) ) ) ! . ",
". ' ) ) ) ) ) ) ) ) 1 2 ) ) ) ) ) ) ) ) ) ) 3 4 ) ) ) ) ) ) ) ) ) ) 5 6 ) ) ) ) ) ) ) ) ) ) ! . ",
". ' ) ) ) ) ) ) ) ) 1 2 ) ) ) ) ) ) ) ) ) ) 3 4 ) ) ) ) ) ) ) ) ) ) 5 6 ) ) ) ) ) ) ) ) ) ) ! . ",
". ' ) ) ) ) ) ) ) ) 1 2 ) ) ) ) ) ) ) ) ) ) 3 4 ) ) ) ) ) ) ) ) ) ) 5 6 ) ) ) ) ) ) ) ) ) ) ! . ",
". ' ) ) ) ) ) ) ) ) 1 2 ) ) ) ) ) ) ) ) ) ) 3 4 ) ) ) ) ) ) ) ) ) ) 5 6 ) ) ) ) ) ) ) ) ) ) ! . ",
". ' ) ) ) ) ) ) ) ) 1 2 ) ) ) ) ) ) ) ) ) ) 3 4 ) ) ) ) ) ) ) ) ) ) 5 6 ) ) ) ) ) ) ) ) ) ) ! . ",
". ' ) ) ) ) ) ) ) ) 1 2 ) ) ) ) ) ) ) ) ) ) 3 4 ) ) ) ) ) ) ) ) ) ) 5 6 ) ) ) ) ) ) ) ) ) ) ! . ",
". ' ) ) ) ) ) ) ) ) 1 2 ) ) ) ) ) ) ) ) ) ) 3 4 ) ) ) ) ) ) ) ) ) ) 5 6 ) ) ) ) ) ) ) ) ) ) ! . ",
". ' ) ) ) ) ) ) ) ) 1 2 ) ) ) ) ) ) ) ) ) ) 3 4 ) ) ) ) ) ) ) ) ) ) 5 6 ) ) ) ) ) ) ) ) ) ) ! . ",
". ' ) ) ) ) ) ) ) ) 1 2 ) ) ) ) ) ) ) ) ) ) 3 4 ) ) ) ) ) ) ) ) ) ) 5 6 ) ) ) ) ) ) ) ) ) ) ! . ",
". ' ) ) ) ) ) ) ) ) 1 2 ) ) ) ) ) ) ) ) ) ) 3 4 ) ) ) ) ) ) ) ) ) ) 5 6 ) ) ) ) ) ) ) ) ) ) ! . ",
". ' ) ) ) ) ) ) ) ) 1 2 ) ) ) ) ) ) ) ) ) ) 3 4 ) ) ) ) ) ) ) ) ) ) 5 6 ) ) ) ) ) ) ) ) ) ) 7 . ",
". ' ) ) ) ) ) ) ) ) 1 2 ) ) ) ) ) ) ) ) ) ) 3 4 ) ) ) ) ) ) ) ) ) ) 5 6 ) ) ) ) ) ) ) ) ) 8 9 . ",
". ' ) ) ) ) ) ) ) ) 1 2 ) ) ) ) ) ) ) ) ) ) 3 4 ) ) ) ) ) ) ) ) ) ) 5 0 a ) ) ) ) ) ) 8 b c d . ",
". ' ) ) ) ) ) ) ) ) 1 2 ) ) ) ) ) ) ) ) ) ) 3 4 ) ) ) ) ) ) ) ) ) ) 5 . e ) ) ) ) ) ) b f f g . ",
". ' ) ) ) ) ) ) ) ) 1 2 ) ) ) ) ) ) ) ) ) ) 3 4 ) ) ) ) ) ) ) ) ) ) 5 h i ) ) ) ) ) ) j k l m . ",
". ' ) ) ) ) ) ) ) ) 1 2 ) ) ) ) ) ) ) ) ) ) 3 4 ) ) ) ) ) ) ) ) ) ) 5 n o ) ) ) ) ) ) ) p q r . ",
". ' ) ) ) ) ) ) ) ) 1 2 ) ) ) ) ) ) ) ) ) ) 3 4 ) ) ) ) ) ) ) ) ) ) 5 n s ) ) ) ) ) ) t t u v . ",
". ' ) ) ) ) ) ) ) ) 1 2 ) ) ) ) ) ) ) ) ) ) 3 4 ) ) ) ) ) ) ) ) ) ) 5 n w ) ) x t ) ) y t z A . ",
". ' ) ) ) ) ) ) ) ) 1 2 ) ) ) ) ) ) ) ) ) ) 3 4 ) ) ) ) ) ) ) ) ) ) 5 n B C ) y ) ) ) C p ) D . ",
". ' ) ) ) ) ) ) ) ) 1 2 ) ) ) ) ) ) ) ) ) ) 3 4 ) ) ) ) ) ) ) ) ) E F G H I J K L z M o N O P . ",
". Q R R R R R R R R S T R R R R R R R R R R U V R R R R R R R R R W X Y Z `  ...+.+.+.@.#.$.%.. ",
". &.*.*.*.*.*.*.*.*.=.-.*.*.*.*.*.*.*.*.*.*.;.>.*.*.*.*.*.*.*.*.*.,.'.Y . ).!.~.{.~.~.!.].].. . "};
