/* XPM */
static char * homerbrasg_xpm[] = {
"140 48 112 2",
"  	c #000000",
". 	c #686868",
"+ 	c #181502",
"@ 	c #9D8A0B",
"# 	c #E5C910",
"$ 	c #C7AE0E",
"% 	c #D5BA0E",
"& 	c #7E6E09",
"* 	c #393939",
"= 	c #EAEAEA",
"- 	c #5A5A5A",
"; 	c #1B1702",
"> 	c #AC960C",
", 	c #FADB11",
"' 	c #D8BE0F",
") 	c #E8CB10",
"! 	c #897809",
"~ 	c #3E3E3E",
"{ 	c #FFFFFF",
"] 	c #626262",
"^ 	c #141101",
"/ 	c #7F7009",
"( 	c #BAA30D",
"_ 	c #A18D0B",
": 	c #010100",
"< 	c #080701",
"[ 	c #0C0B01",
"} 	c #0B0901",
"| 	c #060500",
"1 	c #252003",
"2 	c #362F04",
"3 	c #2E2903",
"4 	c #0F0D01",
"5 	c #635707",
"6 	c #907F0A",
"7 	c #7D6E09",
"8 	c #161302",
"9 	c #978309",
"0 	c #ECCE0F",
"a 	c #020100",
"b 	c #120F01",
"c 	c #362F03",
"d 	c #494005",
"e 	c #3F3704",
"f 	c #080808",
"g 	c #3B3B3B",
"h 	c #7F7F7F",
"i 	c #797979",
"j 	c #685B07",
"k 	c #7C6D08",
"l 	c #6C5E07",
"m 	c #564A02",
"n 	c #D5BE4C",
"o 	c #FBE16A",
"p 	c #FADD46",
"q 	c #FADC34",
"r 	c #FADC31",
"s 	c #FADC30",
"t 	c #F4D610",
"u 	c #F7D911",
"v 	c #050505",
"w 	c #988512",
"x 	c #F3D628",
"y 	c #FADB13",
"z 	c #060606",
"A 	c #B9A222",
"B 	c #F9DB25",
"C 	c #0D0D0D",
"D 	c #C9B236",
"E 	c #FADB24",
"F 	c #FADB16",
"G 	c #FADB14",
"H 	c #111111",
"I 	c #D0B94F",
"J 	c #FADC26",
"K 	c #FADB12",
"L 	c #FADB1F",
"M 	c #FADB21",
"N 	c #BBA750",
"O 	c #FADB1D",
"P 	c #F8D911",
"Q 	c #F9DA11",
"R 	c #030303",
"S 	c #9B8D54",
"T 	c #FADE4C",
"U 	c #FADB17",
"V 	c #FADB26",
"W 	c #F3D510",
"X 	c #606060",
"Y 	c #FBE483",
"Z 	c #FADB1A",
"` 	c #FADB18",
" .	c #F9DB31",
"..	c #F7D811",
"+.	c #202020",
"@.	c #CFB741",
"#.	c #DEC437",
"$.	c #EACE2C",
"%.	c #E7CB2F",
"&.	c #E5C92A",
"*.	c #DFC42C",
"=.	c #C4AB0B",
"-.	c #CFB50C",
";.	c #E7CA0F",
">.	c #F6D711",
",.	c #F4D511",
"'.	c #D3B90E",
").	c #E2C60F",
"!.	c #867509",
"~.	c #3C3C3C",
"{.	c #F8F8F8",
"].	c #5F5F5F",
"                                                                                                                                                                                                                                                                                      . ",
"+ @ # # # # # # # # # # # # # # # # # # # # # # $   % # # # # # # # # # # # # # # # # # # # # # # # # # # # # # # # # # # # # # # # # # # # # # # # # # # # # # # # # # # # # # # # # # # # # # # # # # # & * = = = = = = = = = = = = = = = = = = = = = = = = = = = = = = = = = = = - . ",
"; > , , , , , , , , , , , , , , , , , , , , , , '   ) , , , , , , , , , , , , , , , , , , , , , , , , , , , , , , , , , , , , , , , , , , , , , , , , , , , , , , , , , , , , , , , , , , , , , , , , , , ! ~ { { { { { { { { { { { { { { { { { { { { { { { { { { { { { { { { { { { ] . ",
"; > , , , , , , , , , , , , , , , , , , , , , , '   ) , , , , , , , , , , , , , , , , , , , , , , , , , , , , , , , , , , , , , , , , , , , , , , , , , , , , , , , , , , , , , , , , , , , , , , , , , , ! ~ { { { { { { { { { { { { { { { { { { { { { { { { { { { { { { { { { { { ] . ",
"; > , , , , , , , , , , , , , , , , , , , , , , '   ) , , , , , , , , , , , , , , , , , , , , , , , , , , , , , , , , , , , , , , , , , , , , , , , , , , , , , , , , , , , , , , , , , , , , , , , , , , ! ~ { { { { { { { { { { { { { { { { { { { { { { { { { { { { { { { { { { { ] . ",
"; > , , , , , , , , , , , , , , , , , , , , , , '   ) , , , , , , , , , , , , , , , , , , , , , , , , , , , , , , , , , , , , , , , , , , , , , , , , , , , , , , , , , , , , , , , , , , , , , , , , , , ! ~ { { { { { { { { { { { { { { { { { { { { { { { { { { { { { { { { { { { ] . ",
"; > , , , , , , , , , , , , , , , , , , , , , , '   ) , , , , , , , , , , , , , , , , , , , , , , , , , , , , , , , , , , , , , , , , , , , , , , , , , , , , , , , , , , , , , , , , , , , , , , , , , , ! ~ { { { { { { { { { { { { { { { { { { { { { { { { { { { { { { { { { { { ] . ",
"; > , , , , , , , , , , , , , , , , , , , , , , '   ) , , , , , , , , , , , , , , , , , , , , , , , , , , , , , , , , , , , , , , , , , , , , , , , , , , , , , , , , , , , , , , , , , , , , , , , , , , ! ~ { { { { { { { { { { { { { { { { { { { { { { { { { { { { { { { { { { { ] . ",
"; > , , , , , , , , , , , , , , , , , , , , , , '   ) , , , , , , , , , , , , , , , , , , , , , , , , , , , , , , , , , , , , , , , , , , , , , , , , , , , , , , , , , , , , , , , , , , , , , , , , , , ! ~ { { { { { { { { { { { { { { { { { { { { { { { { { { { { { { { { { { { ] . ",
"; > , , , , , , , , , , , , , , , , , , , , , , '   ) , , , , , , , , , , , , , , , , , , , , , , , , , , , , , , , , , , , , , , , , , , , , , , , , , , , , , , , , , , , , , , , , , , , , , , , , , , ! ~ { { { { { { { { { { { { { { { { { { { { { { { { { { { { { { { { { { { ] . ",
"^ / ( ( ( ( ( ( ( ( ( ( ( ( ( ( ( ( ( ( ( ( ( ( _   ) , , , , , , , , , , , , , , , , , , , , , , , , , , , , , , , , , , , , , , , , , , , , , , , , , , , , , , , , , , , , , , , , , , , , , , , , , , ! ~ { { { { { { { { { { { { { { { { { { { { { { { { { { { { { { { { { { { ] . ",
": < [ [ [ [ [ [ [ [ [ [ [ [ [ [ [ [ [ [ [ [ [ [ }   ) , , , , , , , , , , , , , , , , , , , , , , , , , , , , , , , , , , , , , , , , , , , , , , , , , , , , , , , , , , , , , , , , , , , , , , , , , , ! ~ { { { { { { { { { { { { { { { { { { { { { { { { { { { { { { { { { { { ] . ",
"; > , , , , , , , , , , , , , , , , , , , , , , '   ) , , , , , , , , , , , , , , , , , , , , , , , , , , , , , , , , , , , , , , , , , , , , , , , , , , , , , , , , , , , , , , , , , , , , , , , , , , ! ~ { { { { { { { { { { { { { { { { { { { { { { { { { { { { { { { { { { { ] . ",
"; > , , , , , , , , , , , , , , , , , , , , , , '   ) , , , , , , , , , , , , , , , , , , , , , , , , , , , , , , , , , , , , , , , , , , , , , , , , , , , , , , , , , , , , , , , , , , , , , , , , , , ! ~ { { { { { { { { { { { { { { { { { { { { { { { { { { { { { { { { { { { ] . ",
"; > , , , , , , , , , , , , , , , , , , , , , , '   ) , , , , , , , , , , , , , , , , , , , , , , , , , , , , , , , , , , , , , , , , , , , , , , , , , , , , , , , , , , , , , , , , , , , , , , , , , , ! ~ { { { { { { { { { { { { { { { { { { { { { { { { { { { { { { { { { { { ] . ",
"; > , , , , , , , , , , , , , , , , , , , , , , '   ) , , , , , , , , , , , , , , , , , , , , , , , , , , , , , , , , , , , , , , , , , , , , , , , , , , , , , , , , , , , , , , , , , , , , , , , , , , ! ~ { { { { { { { { { { { { { { { { { { { { { { { { { { { { { { { { { { { ] . ",
"; > , , , , , , , , , , , , , , , , , , , , , , '   ) , , , , , , , , , , , , , , , , , , , , , , , , , , , , , , , , , , , , , , , , , , , , , , , , , , , , , , , , , , , , , , , , , , , , , , , , , , ! ~ { { { { { { { { { { { { { { { { { { { { { { { { { { { { { { { { { { { ] . ",
"; > , , , , , , , , , , , , , , , , , , , , , , '   ) , , , , , , , , , , , , , , , , , , , , , , , , , , , , , , , , , , , , , , , , , , , , , , , , , , , , , , , , , , , , , , , , , , , , , , , , , , ! ~ { { { { { { { { { { { { { { { { { { { { { { { { { { { { { { { { { { { ] . ",
"; > , , , , , , , , , , , , , , , , , , , , , , '   ) , , , , , , , , , , , , , , , , , , , , , , , , , , , , , , , , , , , , , , , , , , , , , , , , , , , , , , , , , , , , , , , , , , , , , , , , , , ! ~ { { { { { { { { { { { { { { { { { { { { { { { { { { { { { { { { { { { ] . ",
"; > , , , , , , , , , , , , , , , , , , , , , , '   ) , , , , , , , , , , , , , , , , , , , , , , , , , , , , , , , , , , , , , , , , , , , , , , , , , , , , , , , , , , , , , , , , , , , , , , , , , , ! ~ { { { { { { { { { { { { { { { { { { { { { { { { { { { { { { { { { { { ] . ",
"; > , , , , , , , , , , , , , , , , , , , , , , '   ) , , , , , , , , , , , , , , , , , , , , , , , , , , , , , , , , , , , , , , , , , , , , , , , , , , , , , , , , , , , , , , , , , , , , , , , , , , ! ~ { { { { { { { { { { { { { { { { { { { { { { { { { { { { { { { { { { { ] . ",
"; > , , , , , , , , , , , , , , , , , , , , , , '   ) , , , , , , , , , , , , , , , , , , , , , , , , , , , , , , , , , , , , , , , , , , , , , , , , , , , , , , , , , , , , , , , , , , , , , , , , , , ! ~ { { { { { { { { { { { { { { { { { { { { { { { { { { { { { { { { { { { ] . ",
"| 1 2 2 2 2 2 2 2 2 2 2 2 2 2 2 2 2 2 2 2 2 2 2 3   ) , , , , , , , , , , , , , , , , , , , , , , , , , , , , , , , , , , , , , , , , , , , , , , , , , , , , , , , , , , , , , , , , , , , , , , , , , , ! ~ { { { { { { { { { { { { { { { { { { { { { { { { { { { { { { { { { { { ] . ",
"4 5 6 6 6 6 6 6 6 6 6 6 6 6 6 6 6 6 6 6 6 6 6 6 7   ) , , , , , , , , , , , , , , , , , , , , , , , , , , , , , , , , , , , , , , , , , , , , , , , , , , , , , , , , , , , , , , , , , , , , , , , , , , ! ~ { { { { { { { { { { { { { { { { { { { { { { { { { { { { { { { { { { { ] . ",
"; > , , , , , , , , , , , , , , , , , , , , , , '   ) , , , , , , , , , , , , , , , , , , , , , , , , , , , , , , , , , , , , , , , , , , , , , , , , , , , , , , , , , , , , , , , , , , , , , , , , , , ! ~ { { { { { { { { { { { { { { { { { { { { { { { { { { { { { { { { { { { ] . ",
"; > , , , , , , , , , , , , , , , , , , , , , , '   ) , , , , , , , , , , , , , , , , , , , , , , , , , , , , , , , , , , , , , , , , , , , , , , , , , , , , , , , , , , , , , , , , , , , , , , , , , , ! ~ { { { { { { { { { { { { { { { { { { { { { { { { { { { { { { { { { { { ] . ",
"; > , , , , , , , , , , , , , , , , , , , , , , '   ) , , , , , , , , , , , , , , , , , , , , , , , , , , , , , , , , , , , , , , , , , , , , , , , , , , , , , , , , , , , , , , , , , , , , , , , , , , ! ~ { { { { { { { { { { { { { { { { { { { { { { { { { { { { { { { { { { { ] . ",
"; > , , , , , , , , , , , , , , , , , , , , , , '   ) , , , , , , , , , , , , , , , , , , , , , , , , , , , , , , , , , , , , , , , , , , , , , , , , , , , , , , , , , , , , , , , , , , , , , , , , , , ! ~ { { { { { { { { { { { { { { { { { { { { { { { { { { { { { { { { { { { ] . ",
"; > , , , , , , , , , , , , , , , , , , , , , , '   ) , , , , , , , , , , , , , , , , , , , , , , , , , , , , , , , , , , , , , , , , , , , , , , , , , , , , , , , , , , , , , , , , , , , , , , , , , , ! ~ { { { { { { { { { { { { { { { { { { { { { { { { { { { { { { { { { { { ] . ",
"; > , , , , , , , , , , , , , , , , , , , , , , '   ) , , , , , , , , , , , , , , , , , , , , , , , , , , , , , , , , , , , , , , , , , , , , , , , , , , , , , , , , , , , , , , , , , , , , , , , , , , ! ~ { { { { { { { { { { { { { { { { { { { { { { { { { { { { { { { { { { { ] . ",
"; > , , , , , , , , , , , , , , , , , , , , , , '   ) , , , , , , , , , , , , , , , , , , , , , , , , , , , , , , , , , , , , , , , , , , , , , , , , , , , , , , , , , , , , , , , , , , , , , , , , , , ! ~ { { { { { { { { { { { { { { { { { { { { { { { { { { { { { { { { { { { ] . ",
"; > , , , , , , , , , , , , , , , , , , , , , , '   ) , , , , , , , , , , , , , , , , , , , , , , , , , , , , , , , , , , , , , , , , , , , , , , , , , , , , , , , , , , , , , , , , , , , , , , , , , , ! ~ { { { { { { { { { { { { { { { { { { { { { { { { { { { { { { { { { { { ] . ",
"; > , , , , , , , , , , , , , , , , , , , , , , '   ) , , , , , , , , , , , , , , , , , , , , , , , , , , , , , , , , , , , , , , , , , , , , , , , , , , , , , , , , , , , , , , , , , , , , , , , , , , ! ~ { { { { { { { { { { { { { { { { { { { { { { { { { { { { { { { { { { { ] . ",
"8 9 0 , , , , , , , , , , , , , , , , , , , , , '   ) , , , , , , , , , , , , , , , , , , , , , , , , , , , , , , , , , , , , , , , , , , , , , , , , , , , , , , , , , , , , , , , , , , , , , , , , , , ! ~ { { { { { { { { { { { { { { { { { { { { { { { { { { { { { { { { { { { ] . ",
"a b c d d d d d d d d d d d d d d d d d d d d d e   ) , , , , , , , , , , , , , , , , , , , , , , , , , , , , , , , , , , , , , , , , , , , , , , , , , , , , , , , , , , , , , , , , , , , , , , , , , , ! ~ { { { { { { { { { { { { { { { { { { { { { { { { { { { { { { { { { { { ] . ",
"f f g h h h h i   j k k k k k k k k k k k k k k l   ) , , , , , , , , , , , , , , , , , , , , , , , , , , , , , , , , , , , , , , , , , , , , , , , , , , , , , , , , , , , , , , , , , , , , , , , , , , ! ~ { { { { { { { { { { { { { { { { { { { { { { { { { { { { { { { { { { { ] . ",
"  m n o p q r s t u , , , , , , , , , , , , , , '   ) , , , , , , , , , , , , , , , , , , , , , , , , , , , , , , , , , , , , , , , , , , , , , , , , , , , , , , , , , , , , , , , , , , , , , , , , , , ! ~ { { { { { { { { { { { { { { { { { { { { { { { { { { { { { { { { { { { ] . ",
"v w x y , , , , , , , , , , , , , , , , , , , , '   ) , , , , , , , , , , , , , , , , , , , , , , , , , , , , , , , , , , , , , , , , , , , , , , , , , , , , , , , , , , , , , , , , , , , , , , , , , , ! ~ { { { { { { { { { { { { { { { { { { { { { { { { { { { { { { { { { { { ] . ",
"z A B , , , , , , , , , , , , , , , , , , , , , '   ) , , , , , , , , , , , , , , , , , , , , , , , , , , , , , , , , , , , , , , , , , , , , , , , , , , , , , , , , , , , , , , , , , , , , , , , , , , ! ~ { { { { { { { { { { { { { { { { { { { { { { { { { { { { { { { { { { { ] . ",
"C D E F G , , , , , , , , , , , , , , , , , , , '   ) , , , , , , , , , , , , , , , , , , , , , , , , , , , , , , , , , , , , , , , , , , , , , , , , , , , , , , , , , , , , , , , , , , , , , , , , , , ! ~ { { { { { { { { { { { { { { { { { { { { { { { { { { { { { { { { { { { ] . ",
"H I J , K , , , , , , , , , , , , , , , , , , , '   ) , , , , , , , , , , , , , , , , , , , , , , , , , , , , , , , , , , , , , , , , , , , , , , , , , , , , , , , , , , , , , , , , , , , , , , , , , , ! ~ { { { { { { { { { { { { { { { { { { { { { { { { { { { { { { { { { { { ] . ",
"C I L , , , , , , , , , , , , , , , , , , , , , '   ) , , , , , , , , , , , , , , , , , , , , , , , , , , , , , , , , , , , , , , , , , , , , , , , , , , , , , , , , , , , , , , , , , , , , , , , , , , ! ~ { { { { { { { { { { { { { { { { { { { { { { { { { { { { { { { { { { { ] . ",
"C I M , , , , , , , , , , , , , , , , , , , , , '   ) , , , , , , , , , , , , , , , , , , , , , , , , , , , , , , , , , , , , , , , , , , , , , , , , , , , , , , , , , , , , , , , , , , , , , , , , , , ! ~ { { { { { { { { { { { { { { { { { { { { { { { { { { { { { { { { { { { ] . ",
"z N r y F K , O P Q , , , , , , , , , , , , , , '   ) , , , , , , , , , , , , , , , , , , , , , , , , , , , , , , , , , , , , , , , , , , , , , , , , , , , , , , , , , , , , , , , , , , , , , , , , , , ! ~ { { { { { { { { { { { { { { { { { { { { { { { { { { { { { { { { { { { ] . ",
"R S T U K K U V W P , , , , , , , , , , , , , , '   ) , , , , , , , , , , , , , , , , , , , , , , , , , , , , , , , , , , , , , , , , , , , , , , , , , , , , , , , , , , , , , , , , , , , , , , , , , , ! ~ { { { { { { { { { { { { { { { { { { { { { { { { { { { { { { { { { { { ] . ",
"R X Y , L Z `  .W ..Q , , , , , , , , , , , , , '   ) , , , , , , , , , , , , , , , , , , , , , , , , , , , , , , , , , , , , , , , , , , , , , , , , , , , , , , , , , , , , , , , , , , , , , , , , , , ! ~ { { { { { { { { { { { { { { { { { { { { { { { { { { { { { { { { { { { ] . ",
"  +.@.#.$.%.&.*.=.-.;.>.,.,.,.,.,.,.,.,.,.,.,.,.'.  ).,.,.,.,.,.,.,.,.,.,.,.,.,.,.,.,.,.,.,.,.,.,.,.,.,.,.,.,.,.,.,.,.,.,.,.,.,.,.,.,.,.,.,.,.,.,.,.,.,.,.,.,.,.,.,.,.,.,.,.,.,.,.,.,.,.,.,.,.,.,.,.,.,.,.!.~.{.{.{.{.{.{.{.{.{.{.{.{.{.{.{.{.{.{.{.{.{.{.{.{.{.{.{.{.{.{.{.{.{.{.{.].. ",
"                                                                                                                                                                                                                                                                                      . "};
