/* XPM */
static char * sud_xpm[] = {
"64 64 204 2",
"  	c None",
". 	c #3B2921",
"+ 	c #2E221C",
"@ 	c #463124",
"# 	c #79735E",
"$ 	c #67625C",
"% 	c #5B5952",
"& 	c #4F4C48",
"* 	c #807B6A",
"= 	c #A1A9A3",
"- 	c #89928C",
"; 	c #93968B",
"> 	c #9F9F8B",
", 	c #28221F",
"' 	c #666A62",
") 	c #383F40",
"! 	c #756F64",
"~ 	c #1B1B1A",
"{ 	c #2D211B",
"] 	c #3C291E",
"^ 	c #2A1C17",
"/ 	c #1A110E",
"( 	c #150C0A",
"_ 	c #120908",
": 	c #0D0606",
"< 	c #0C0505",
"[ 	c #0F0706",
"} 	c #140A08",
"| 	c #170D0A",
"1 	c #1F130F",
"2 	c #251813",
"3 	c #2A1C16",
"4 	c #261B16",
"5 	c #2B1F1A",
"6 	c #33393A",
"7 	c #3B3934",
"8 	c #171211",
"9 	c #0B0404",
"0 	c #1A1614",
"a 	c #2D2A28",
"b 	c #3D3A37",
"c 	c #494642",
"d 	c #595750",
"e 	c #3C3934",
"f 	c #625D57",
"g 	c #5D5953",
"h 	c #211E1B",
"i 	c #53514A",
"j 	c #181311",
"k 	c #595650",
"l 	c #221F1C",
"m 	c #3F3C37",
"n 	c #413E3B",
"o 	c #1A1A19",
"p 	c #453024",
"q 	c #65605A",
"r 	c #61655D",
"s 	c #5F5A54",
"t 	c #555851",
"u 	c #4A4541",
"v 	c #3A3632",
"w 	c #161210",
"x 	c #34312F",
"y 	c #161414",
"z 	c #4C4943",
"A 	c #66615B",
"B 	c #59544F",
"C 	c #45403C",
"D 	c #1E1A18",
"E 	c #363C3D",
"F 	c #0F0B0B",
"G 	c #27211E",
"H 	c #170606",
"I 	c #373E3F",
"J 	c #2D3233",
"K 	c #150F0E",
"L 	c #26201D",
"M 	c #2D1E18",
"N 	c #2C201B",
"O 	c #444033",
"P 	c #45433E",
"Q 	c #242320",
"R 	c #615C57",
"S 	c #0E0707",
"T 	c #130D0C",
"U 	c #736D62",
"V 	c #1D1816",
"W 	c #0F0908",
"X 	c #0D0605",
"Y 	c #1D1A17",
"Z 	c #1E1F20",
"` 	c #16100E",
" .	c #221813",
"..	c #271914",
"+.	c #3A2921",
"@.	c #55534C",
"#.	c #110B08",
"$.	c #191819",
"%.	c #393732",
"&.	c #130E0E",
"*.	c #2E2B29",
"=.	c #47453F",
"-.	c #191817",
";.	c #57554F",
">.	c #262220",
",.	c #100706",
"'.	c #413D34",
").	c #46423E",
"!.	c #54504B",
"~.	c #726D59",
"{.	c #53514B",
"].	c #282321",
"^.	c #423D39",
"/.	c #58534E",
"(.	c #57544E",
"_.	c #282523",
":.	c #403E39",
"<.	c #4D4946",
"[.	c #413E3A",
"}.	c #25221F",
"|.	c #1E1917",
"1.	c #221D1A",
"2.	c #191412",
"3.	c #212324",
"4.	c #34241D",
"5.	c #2B1D17",
"6.	c #211410",
"7.	c #130908",
"8.	c #170F0C",
"9.	c #2D221C",
"0.	c #797464",
"a.	c #65604E",
"b.	c #48433F",
"c.	c #2C2925",
"d.	c #0E0706",
"e.	c #504B3D",
"f.	c #1F1917",
"g.	c #140B09",
"h.	c #5C5752",
"i.	c #656153",
"j.	c #171210",
"k.	c #393532",
"l.	c #5D5853",
"m.	c #57554E",
"n.	c #514D48",
"o.	c #4E4B47",
"p.	c #1B1615",
"q.	c #222526",
"r.	c #211713",
"s.	c #201410",
"t.	c #44423C",
"u.	c #322F2B",
"v.	c #575347",
"w.	c #2F2C2A",
"x.	c #332F2C",
"y.	c #373431",
"z.	c #605B55",
"A.	c #4B4943",
"B.	c #221611",
"C.	c #4C4A44",
"D.	c #302D2A",
"E.	c #110A09",
"F.	c #635E58",
"G.	c #160D0A",
"H.	c #272421",
"I.	c #544F4A",
"J.	c #302D2B",
"K.	c #3C3834",
"L.	c #1A100B",
"M.	c #242727",
"N.	c #313738",
"O.	c #231D1A",
"P.	c #19191A",
"Q.	c #241E1B",
"R.	c #32221B",
"S.	c #36251E",
"T.	c #38261F",
"U.	c #291B16",
"V.	c #281A15",
"W.	c #302C25",
"X.	c #443F33",
"Y.	c #78725D",
"Z.	c #5A5851",
"`.	c #605B56",
" +	c #4B4742",
".+	c #2B2724",
"++	c #332F28",
"@+	c #4E4C46",
"#+	c #0D0505",
"$+	c #4A4842",
"%+	c #3A2820",
"&+	c #4F4D47",
"*+	c #4F4A46",
"=+	c #433E3A",
"-+	c #3B3731",
";+	c #1F1B19",
">+	c #191413",
",+	c #100A09",
"'+	c #1B1715",
")+	c #2F2B28",
"!+	c #3D3935",
"~+	c #42403B",
"{+	c #4D4B45",
"]+	c #27201D",
". + . . @ @ . @ . . . . + + + + + . + . @ @ @ . @ . . . . . . . . + . + + + + . . . . . + + + + + . + . + + @ . @ . . . . . . . ",
"# $ % & & @ * = - * * # # * * * # $ % & & @ ; = - * * # # % * * # $ % & & . * = - ; ; # # # # # # $ % & + @ . * = > * * * % * * ",
"$ % $ % , . > ' $ $ $ $ # * $ $ $ % $ % , . > ' $ $ $ # ' * ' $ $ % $ % , + > ' $ $ $ # ' ' $ $ $ ' $ % , . @ ; ' $ $ $ # * ' $ ",
"$ $ % $ ) . * $ $ $ $ ' ' $ $ $ $ $ % $ ) + * $ $ $ # ' $ ' $ $ $ $ % $ ) . * $ $ $ # ' $ $ $ $ ' $ $ $ ) @ * * $ $ $ ' ' ' $ $ ",
"$ $ $ $ , . & % $ $ $ ! & $ $ $ $ $ $ $ , . & % $ $ $ ! & $ $ $ $ $ $ $ , + * $ $ * $ $ ' ! & & & % $ % , + $ % $ $ $ ! & $ $ $ ",
"$ $ $ % , . % $ $ $ $ & & $ $ $ $ $ $ % , . % $ $ ! & & & $ $ $ $ $ $ % , . % $ $ ! & & $ & % & $ $ % % , + % $ % $ $ & & $ $ $ ",
"& $ $ & , . % & & $ % ) ) $ $ & & $ $ & ~ . % & & & & & % $ $ & & $ $ & , . % & & & & % $ $ & $ & % $ & , + & % $ $ % ) ) $ $ & ",
") ) , , ) @ & , , , , , ) ) ) ) ) ) , ~ ) @ ~ , , , ) , ) ~ ~ , ) ) , , ) @ & , , , ) ) ) ) ) ) ) ) , , ) + & , ) , , , ) ) ) ) ",
"+ + . + . . + + . . + . + + + + + + . + . . + @ { ] ^ / ( _ : < [ } | 1 2 3 4 5 + + + . + . . + + . + . . . . . . . . + . . . + ",
"* ; * * * * & * % & & & % % & @ # * # # # # 6 7 8 9 9 9 9 9 9 9 9 9 9 9 9 9 9 9 0 a b c % % @ @ * = ; * * * * # # # # $ % & & @ ",
"* ' $ $ $ $ $ # * $ & % % $ , . * ' % % d e < 9 9 9 9 9 9 9 9 9 9 9 9 9 9 9 9 9 9 9 9 9 f & , @ ; $ $ * ' $ ' ' $ $ $ ' $ % , . ",
"* $ $ # $ $ $ $ $ $ $ % $ % , @ # % % g h 9 9 9 9 9 9 9 9 9 9 9 9 9 9 9 9 9 9 9 9 9 9 9 f & , . % % $ % $ $ $ $ $ $ ' $ $ $ ) @ ",
"& $ % $ $ $ $ % $ $ & % $ % ) . # ' i j 9 9 9 9 9 9 9 9 9 9 9 9 9 9 9 9 9 9 9 9 9 9 9 9 f % , + & $ % $ $ $ $ ! & % & % $ % , + ",
"& % $ % $ % $ $ $ % & $ % $ , . & k h 9 9 9 9 9 9 9 l m n c o p q r s t u v w 9 9 9 9 9 f $ ) + & % $ % $ $ $ & % & $ $ % % , . ",
"& & % $ % $ % $ $ % & % % & , . ) x 9 9 9 9 9 9 y z ) & % ) ~ . % $ $ $ $ & A B C D 9 9 f $ , + & & % $ % $ $ $ & $ & % $ & , + ",
"& , , , ) ) ) ) ) ) ) , , ~ ) @ E < 9 9 9 9 9 F G , , , ~ ~ , @ . , ) , ) ) , ) H I J K L ~ ) + & , , , ) , ) ) ) ) ) ) , , ) . ",
"+ + + + + . + . @ @ @ . @ . . . M 9 9 9 9 9 } N + + + . . . . . + + + + + . + . + + @ . @ . . . . . . . . + . . @ @ . @ . . . . ",
"$ * # # $ % & ) & @ * = - * * # O 9 9 9 9 9 P & & . * = - ; ; # # # # # # $ % & & @ . * = > * * * % * * # $ % & & @ % > * * * $ ",
"$ # % % % & % & ~ . > ' $ $ $ # Q 9 9 9 9 9 R % , + > ' $ $ $ # ' ' $ $ $ ' $ % , . @ ; ' $ $ $ # * ' $ $ % $ % , . * ' % % % % ",
"' % % % % % & % , + * $ $ $ # ' S 9 9 9 9 T % $ ) . * $ $ $ # ' $ $ $ $ ' $ $ $ ) @ * * $ $ $ ' ' ' $ $ $ $ % $ ) . # % % % % ' ",
") % % % % % % % ~ . & % $ $ $ U 9 9 9 9 9 V $ $ , + * $ $ * $ $ ' ! & & & % $ % , + $ % $ $ $ ! & $ $ $ $ $ $ $ , . ) & % % % $ ",
") % % % % % % & ~ . % $ $ ! & & W 9 9 9 9 X A % , . % $ $ ! & & $ & % & $ $ % % , + % $ % $ $ & & $ $ $ $ $ $ % , . & % % % % ) ",
", % % ) ) % % ) ~ . % & & & & & Y 9 9 9 9 9 B & , . % & & & & % $ $ & $ & % $ & , + & % $ $ % ) ) $ $ & & $ $ & , . & ) ) % & , ",
", , , , , , ~ ~ , @ & , , , ) , Z 9 9 9 9 9 ` , ) @ & , , , ) ) ) ) ) ) ) ) , , ) + , , ) , , , ) ) ) ) ) ) , , ) @ ) ~ ~ ~ ~ ~ ",
". + . . . . . . . . + . . . + +  .9 9 9 9 9 9 ..+.+ . + + + + + + . + . . + @ + @ . + + + + . . . . . . . + + + + + . + . . + + ",
"= ; * * * * # # # # $ % & & @ # @.#.9 9 9 9 9 9 $.J I & & ) @ * ; * * * * & $ $ # # $ % & & . # > * * * # # % % ) ) ) & & ) @ * ",
"$ $ * ' $ ' ' $ $ $ ' $ % , . * ' %.9 9 9 9 9 9 9 9 &.*.=.-.. * ' $ $ $ $ $ $ $ ' $ ' $ % , + % $ $ $ % % $ # % % ) & % ) ~ @ ; ",
"% $ % $ $ $ $ $ $ ' $ $ $ ) @ # % ;.>.9 9 9 9 9 9 9 9 9 9 9 ,.'.).!.~.$ $ $ $ $ $ $ $ $ $ ) . $ % $ % ' $ % % % % % % % ) ~ . % ",
"$ % $ $ $ $ ! & & & % $ % , + ) % & {.Y 9 9 9 9 9 9 9 9 9 9 9 9 9 9 9 ].^./.A & & & % $ % , . $ ' ' % ' % % % % % & % % & ~ + & ",
"% $ % $ $ $ & % & $ $ % % , . ) & % & (._.9 9 9 9 9 9 9 9 9 9 9 9 9 9 9 9 9 D :.<.$ $ % % , @ % ' % ' % % & % % & % % % % , + & ",
"& % $ % $ $ $ & $ & % $ & , + ) ) & % & % [.}.9 9 9 9 9 9 9 9 9 9 9 9 9 9 9 9 9 |.b % $ & , . & % % % % ) % % % % % % % % ~ + & ",
", , , ) , ) ) ) ) ) ) , , ) . ) ~ ~ ~ , , , , 1.2.: 9 9 9 9 9 9 9 9 9 9 9 9 9 9 9 9 3.G , ) @ ) ~ , ~ , , ~ , H , , ~ ~ ~ , + & ",
"+ . . @ @ . @ . . . . + + + + + . + . @ @ @ . @ . +.4.5.6.7.9 9 9 9 9 9 9 9 9 9 9 9 9 8.9.+ + + . + . + + @ . @ . . . . . . . . ",
"$ % & & @ # > * * * $ $ * # # $ % & ) ) @ ; = - * * # # % * 0.a.b.c.d.9 9 9 9 9 9 9 9 9 e.# # # $ % & + @ . * = > * * * % * * # ",
"% $ % , . * ' % % % % $ # % % % & % & ~ . > ' $ $ $ # ' * ' $ $ % $ ;.f.g.9 9 9 9 9 9 9 9 h.$ $ ' $ % , . @ ; ' $ $ $ # * ' $ $ ",
"$ % $ ) . # % % % % ' ' % % % % % & % , + * $ $ $ # ' $ ' $ $ $ $ % $ ) . i.j.9 9 9 9 9 9 k.$ ' $ $ $ ) @ * * $ $ $ ' ' ' $ $ $ ",
"$ $ $ , . ) & % % % $ ) % % % % % % % ~ . & % $ $ $ ! & $ $ $ $ $ $ $ , + * l.j 9 9 9 9 9 9 m.& % $ % , + $ % $ $ $ ! & $ $ $ $ ",
"$ $ % , . & % % % % ) ) % % % % % % & ~ . % $ $ ! & & & $ $ $ $ $ $ % , . % $ n.9 9 9 9 9 9 [.$ $ % % , + % $ % $ $ & & $ $ $ $ ",
"$ $ & , . & ) ) % & , , % % ) ) % % ) ~ . % & & & & & % $ $ & & $ $ & , . % & o.p.9 9 9 9 9 ).& % $ & , + & % $ $ % ) ) $ $ & & ",
") , , ) @ ) ~ ~ ~ ~ ~ , , , , , , ~ ~ , @ ~ , , , ) , ) ~ ~ , ) ) , , ) @ & , , 2.9 9 9 9 9 q.) ) , , ) + & , ) , , , ) ) ) ) ) ",
"+ + + . + . . + + . . + . + + + + + + . + . . + @ + @ . + + + + . . . . . . . + r.9 9 9 9 9 s.. + + . + . . . . . . . . + . . . ",
"@ * ; * * * * & * % & & & % % & @ * ; * * * * & $ $ # # $ % & & . * = > > * * * t.9 9 9 9 9 u.) @ * = ; * * * * # # # # $ % & & ",
". * ' $ $ $ $ $ # * $ & % % $ , . * ' $ $ $ $ $ $ $ ' $ ' $ % , + ; # # # $ $ # v.9 9 9 9 9 w., @ ; $ $ * ' $ ' ' $ $ $ ' $ % , ",
"@ * $ $ # $ $ $ $ $ $ $ % $ % , @ * $ $ # $ $ $ $ $ $ $ $ $ $ ) . # $ # $ ' # $ x.9 9 9 9 9 y., . % % $ % $ $ $ $ $ $ ' $ $ $ ) ",
"+ & $ % $ $ $ $ % $ $ & % $ % ) . * ' $ $ $ $ $ $ & % & % $ % , . # ' ' $ ' $ z.X 9 9 9 9 9 A., + & $ % $ $ $ $ ! & & & % $ % , ",
". & % $ % $ % $ $ $ % & $ % $ , B.C.$ $ $ $ $ $ % % & $ $ % % , @ $ ' $ ' $ $ D.9 9 9 9 9 E.F.) + & % $ % $ $ $ & % & $ $ % % , ",
"+ & & % $ % $ % $ $ % & % % & , G.9 H.I.o.& & $ & & $ & % $ & , . % $ $ $ A J.9 9 9 9 9 9 K.$ , + & & % $ % $ $ $ & $ & % $ & , ",
". & , , , ) ) ) ) ) ) ) , , ~ ) L.9 9 9 S M.N.) , ) ) ) ) , , ) @ ) , ) O.P.9 9 9 9 9 9 9 Q.~ ) + & , , , ) , ) ) ) ) ) ) , , ) ",
"+ + . + . @ @ @ . @ . . . . . . G.9 9 9 9 9 9 ,.6.^ R.S.T.{ 9.N 5 4 U.g.9 9 9 9 9 9 9 9 V.. . . . . + . . @ @ . @ . . . . + + + ",
"* # $ % & % @ * = - * * # # % * W.9 9 9 9 9 9 9 9 9 9 9 9 9 9 9 9 9 9 9 9 9 9 9 9 9 9 X.Y.# & * * $ % & ) ) @ ; = - * * # # * * ",
"$ $ % $ % , . > ' $ $ $ # ' * ' >.9 9 9 9 9 9 9 9 9 9 9 9 9 9 9 9 9 9 9 9 9 9 9 9 9 %.Z.% $ * ' % % & % & ~ . > ' $ $ $ $ # * $ ",
"$ $ $ % $ ) + * $ $ $ # ' $ ' $ `. +.+9 9 9 9 9 9 9 9 9 9 9 9 9 9 9 9 9 9 9 9 9 ++@+% % ' ' ' % % % % & % , . * $ $ $ $ ' ' $ $ ",
"$ $ $ $ $ , . & % $ $ $ ! & $ $ $ $ $ g  +K #+9 9 9 9 9 9 9 9 9 9 9 9 9 9 < / $+o.% % % $ ) % % % % % % % ~ . & % $ $ $ ! & $ $ ",
"$ $ $ $ % , . % $ $ ! & & & $ $ $ $ $ $ % , %+&+*+=+-+;+>+T ,+'+D )+!+~+{+]++ & % & % % ) ) % % % % % % & ~ . % $ $ $ $ & & $ $ ",
"& & $ $ & ~ . % & & & & & % $ $ & & $ $ & , . % & & & & % $ $ & $ & % $ & , + ) & % % & , , % % ) ) % % ) ~ . % & & $ % ) ) $ $ ",
") ) ) , ~ ) @ & , , , ) , ) ~ ~ , ) ) , , ) @ & , , , ) ) ) ) ) ) ) ) , , ) + ~ ~ , ~ ~ ~ , , , , , , ~ ~ , @ & , , , , , ) ) ) ",
". . . . + + + + + . + . . + + . + . . . . . . . . + . . . + + + . + . . + + . . + . + + + + + + . + . . + @ + @ . + + + + . . . ",
"> > * * * % % & & & % % & @ * = ; * * * * # # # # $ % & & @ * ; * * * * & * % & & & % % & @ # % # # # # ) % % $ $ % & ) ) . * = ",
"# # $ $ # * $ $ & % $ & , @ ; $ $ * ' $ ' ' $ $ $ ' $ % , . * ' $ $ $ $ $ # * $ & % % $ , . * ' % % % % % % % ' % ' % & ~ + ; # ",
"# $ ' # $ $ $ $ $ $ $ & , . % % $ % $ $ $ $ $ $ ' $ $ $ ) @ * $ $ # $ $ $ $ $ $ $ % $ % , @ # % % $ % % % % % % % % % % , . # $ ",
"' $ ' $ $ $ $ $ % $ $ % , + & $ % $ $ $ $ ! & & & % $ % , + & $ % $ $ $ $ % $ $ & % $ % ) . # ' % % % % % % ) ) ) & % & ~ . # ' ",
"$ ' $ $ % $ $ % $ $ $ $ ) + & % $ % $ $ $ & % & $ $ % % , . & % $ % $ % $ $ $ % & $ % $ , . & % % % % % % & & ) % % & & ~ @ $ ' ",
"$ $ $ & $ $ $ $ $ $ $ $ , + & & % $ % $ $ $ & $ & % $ & , + & & % $ % $ % $ $ % & % % & , . ) & % ) ) ) % ) ) % ) & % ) ~ . % $ ",
") , ) ) , ) H ) ) , , ~ ) + & , , , ) , ) ) ) ) ) ) , , ) . & , , , ) ) ) ) ) ) ) , , ~ ) @ , ~ , ~ , , , ~ , , , , ~ ~ , @ & , "};
