/* XPM */
static char * est_xpm[] = {
"64 64 52 1",
" 	c None",
".	c #3B2921",
"+	c #2E221C",
"@	c #463124",
"#	c #79735E",
"$	c #67625C",
"%	c #5B5952",
"&	c #4F4C48",
"*	c #807B6A",
"=	c #A1A9A3",
"-	c #89928C",
";	c #93968B",
">	c #9F9F8B",
",	c #28221F",
"'	c #666A62",
")	c #383F40",
"!	c #756F64",
"~	c #1B1B1A",
"{	c #797564",
"]	c #0B0404",
"^	c #3F3C37",
"/	c #61645D",
"(	c #363330",
"_	c #56544D",
":	c #47433E",
"<	c #4B4844",
"[	c #191A1A",
"}	c #1A1918",
"|	c #0F0A0A",
"1	c #170606",
"2	c #38261F",
"3	c #160D0A",
"4	c #23201E",
"5	c #292623",
"6	c #2E2A27",
"7	c #625D57",
"8	c #130D0C",
"9	c #1B100C",
"0	c #736D59",
"a	c #373328",
"b	c #403C38",
"c	c #383631",
"d	c #302D2B",
"e	c #191312",
"f	c #2B201A",
"g	c #1F130E",
"h	c #3E423F",
"i	c #39271F",
"j	c #4C4945",
"k	c #7B7666",
"l	c #62665E",
"m	c #58564F",
".+..@@.@....+++++.+.@@@.@........+.++++.....+++++.+.++@.@.......",
"#$%&&@*=-**##***#$%&&@;=-**##%**#$%&&.*=-;;######$%&+@.*=>***%**",
"$%$%,.>'$$$$#*$$$%$%,.>'$$$#'*'$$%$%,+>'$$$#''$$$'$%,.@;'$$$#*'$",
"$$%$).*$$$$''$$$$$%$)+*$$$#'$'$$$$%$).*$$$#'$$$$'$$$)@**$$$'''$$",
"$$$$,.&%$$$!&$$$$$$$,.&%$$$!&$$$$$$$,+*$$*$$'!&&&%$%,+$%$$$!&$$$",
"$$$%,.%$$$$&&$$$$$$%,.%$$!&&&$$$$$$%,.%$$!&&$&%&$$%%,+%$%$$&&$$$",
"&$$&,.%&&$%))$$&&$$&~.%&&&&&%$$&&$$&,.%&&&&%$$&$&%$&,+&%$$%))$$&",
")),,)@&,,,,,)))))),~)@~,,,),)~~,)),,)@&,,,)))))))),,)+&,),,,))))",
"++.+..++..+.++++++.+..+@+@.++++.......+++++.+..++.+........+...+",
"*;****&*%&&&%%&@#{]]]]]]]]]]]]]]]]]]]]]]]]]]]^@@*=;****####$%&&@",
"*'$$$$$#*$&%%$,.*/]]]]]]]]]]]]]]]]]]]]]]]]]]](,@;$$*'$''$$$'$%,.",
"*$$#$$$$$$$%$%,@#_]]]]]]]]]]]]]]]]]]]]]]]]]]](,.%%$%$$$$$$'$$$)@",
"&$%$$$$%$$&%$%).#/]]]]]]]]]]]]]]]]]]]]]]]]]]]^,+&$%$$$$!&%&%$%,+",
"&%$%$%$$$%&$%$,.&_]]]]]]]]]]]]]]]]]]]]]]]]]]]:)+&%$%$$$&%&$$%%,.",
"&&%$%$%$$%&%%&,.)<]]]]][)%)&%)~.%$$$$&$$$$$$$$,+&&%$%$$$&$&%$&,+",
"&,,,))))))),,~)@)}]]]]]|,,,,~~,@.,),)),)1)),,~)+&,,,),)))))),,).",
"+++++.+.@@@.@....2]]]]]3+++.....+++++.+.++@.@........+..@@.@....",
"$*##$%&)&@*=-**##_]]]]]4&.*=-;;######$%&&@.*=>***%**#$%&&@%>***$",
"$#%%%&%&~.>'$$$#'{]]]]]5,+>'$$$#''$$$'$%,.@;'$$$#*'$$%$%,.*'%%%%",
"'%%%%%&%,+*$$$#'$/]]]]]6).*$$$#'$$$$'$$$)@**$$$'''$$$$%$).#%%%%'",
")%%%%%%%~.&%$$$!&7]]]]]6,+*$$*$$'!&&&%$%,+$%$$$!&$$$$$$$,.)&%%%$",
")%%%%%%&~.%$$!&&&7]]]]]5,.%$$!&&$&%&$$%%,+%$%$$&&$$$$$$%,.&%%%%)",
",%%))%%)~.%&&&&&%7]]]]]4,.%&&&&%$$&$&%$&,+&%$$%))$$&&$$&,.&))%&,",
",,,,,,~~,@&,,,),)}]]]]]8)@&,,,)))))))),,)+,,),,,)))))),,)@)~~~~~",
".+........+...+++2]]]]]9.+.++++++.+..+@+@.++++.......+++++.+..++",
"=;****####$%&&@#%0]]]]]5)))&&)@*;****&$$##$%&&.#>***##%%)))&&)@*",
"$$*'$''$$$'$%,.*'_]]]]]a%)&&%~.*'$$$$$$$'$'$%,+%$$$%%$#%%)&%)~@;",
"%$%$$$$$$'$$$)@#%_]]]]]]]]]]]]]]]]]]]]]]]]]]b).$%$%'$%%%%%%%)~.%",
"$%$$$$!&&&%$%,+)%<]]]]]]]]]]]]]]]]]]]]]]]]]]c,.$''%'%%%%%&%%&~+&",
"%$%$$$&%&$$%%,.)&_]]]]]]]]]]]]]]]]]]]]]]]]]]c,@%'%'%%&%%&%%%%,+&",
"&%$%$$$&$&%$&,+))<]]]]]]]]]]]]]]]]]]]]]]]]]]d,.&%%%%)%%%%%%%%~+&",
",,,),)))))),,).)~}]]]]]]]]]]]]]]]]]]]]]]]]]]e)@)~,~,,~,1,,~~~,+&",
"+..@@.@....+++++.f]]]]]g........+.++++.....+++++.+.++@.@........",
"$%&&@#>***$$*##$%<]]]]]h**##%**#$%&&.*=-;;######$%&+@.*=>***%**#",
"%$%,.*'%%%%$#%%%&_]]]]]6$$#'*'$$%$%,+>'$$$#''$$$'$%,.@;'$$$#*'$$",
"$%$).#%%%%''%%%%%<]]]]]6$#'$'$$$$%$).*$$$#'$$$$'$$$)@**$$$'''$$$",
"$$$,.)&%%%$)%%%%%_]]]]]6$$!&$$$$$$$,+*$$*$$'!&%&%$%,+$%$$$!&$$$$",
"$$%,.&%%%%))%%%%%_]]]]]6!&&&$$$$$$%,.%$$!&&$&%&$$%%,+%$%$$&&$$$$",
"$$&,.&))%&,,%%))%_]]]]]4&&&%$$&&$$&,.%&&&&%$$&$&%$&,+&%$$%))$$&&",
"),,)@)~~~~~,,,,,,}]]]]]8,),)~~,)),,)@&,,,)))))))),,)+&,),,,)))))",
"+++.+..++..+.++++f]]]]]3@+@.++++.......+++++.+..++.+........+...",
"@*;****&*%&&&%%&@{]]]]]4$$##$%&&.*=>>***%%&&&%%)@*=;****####$%&&",
".*'$$$$$#*$&%%$,.{]]]]]6$$'$'$%,+;###$$#*$$&%$&,@;$$*'$''$$$'$%,",
"@*$$#$$$$$$$%$%,@{]]]]]6$$$$$$$).#$#$'#$$$$$$$&,.%%$%$$$$$$'$$$)",
"+&$%$$$$%$$&%$%).{]]]]]6$&%&%$%,.#''$'$$$$$%$$%,+&$%$$$$!&&&%$%,",
".&%$%$%$$$%&$%$,._]]]]]6%%&$$%%,@$'$'$$%$$%$$$$)+&%$%$$$&%&$$%%,",
"+&&%$%$%$$%&%%&,.<]]]]]6&&$&%$&,.%$$$$&$$$$$$$$,+&&%$%$$$&$&%$&,",
".&,,,))))))),,~)@<]]]]][,)))),,)@),),)),)1)),,~)+&,,,),)))))),,)",
"++.+.@@@.@.......2]]]]]]]]]]]]]]]]]]]]]]]]]]]]i...+..@@.@....+++",
"*#$%&%@*=-**##%**0]]]]]]]]]]]]]]]]]]]]]]]]]]]]j**$%&))@;=-**##**",
"$$%$%,.>'$$$#'*'$7]]]]]]]]]]]]]]]]]]]]]]]]]]]]k'%%&%&~.>'$$$$#*$",
"$$$%$)+*$$$#'$'$$7]]]]]]]]]]]]]]]]]]]]]]]]]]]]l%%%%&%,.*$$$$''$$",
"$$$$$,.&%$$$!&$$$7]]]]]]]]]]]]]]]]]]]]]]]]]]]]m%%%%%%~.&%$$$!&$$",
"$$$$%,.%$$!&&&$$$$$$%,.%$$!&&$&%&$$%%,+&%&%%))%%%%%%&~.%$$$$&&$$",
"&&$$&~.%&&&&&%$$&&$$&,.%&&&&%$$&$&%$&,+)&%%&,,%%))%%)~.%&&$%))$$",
"))),~)@&,,,),)~~,)),,)@&,,,)))))))),,)+~~,~~~,,,,,,~~,@&,,,,,)))",
"....+++++.+..++.+........+...+++.+..++..+.++++++.+..+@+@.++++...",
">>***%%&&&%%&@*=;****####$%&&@*;****&*%&&&%%&@#%####)%%$$%&)).*=",
"##$$#*$$&%$&,@;$$*'$''$$$'$%,.*'$$$$$#*$&%%$,.*'%%%%%%%'%'%&~+;#",
"#$'#$$$$$$$&,.%%$%$$$$$$'$$$)@*$$#$$$$$$$%$%,@#%%$%%%%%%%%%%,.#$",
"'$'$$$$$%$$%,+&$%$$$$!&&&%$%,+&$%$$$$%$$&%$%).#'%%%%%%)))&%&~.#'",
"$'$$%$$%$$$$)+&%$%$$$&%&$$%%,.&%$%$%$$$%&$%$,.&%%%%%%&&)%%&&~@$'",
"$$$&$$$$$$$$,+&&%$%$$$&$&%$&,+&&%$%$%$$%&%%&,.)&%)))%))%)&%)~.%$",
"),)),)1)),,~)+&,,,),)))))),,).&,,,))))))),,~)@,~,~,,,~,,,,~~,@&,"};
