/* XPM */
static char * nord_xpm[] = {
"64 64 143 2",
"  	c None",
". 	c #3B2921",
"+ 	c #2E221C",
"@ 	c #463124",
"# 	c #79735E",
"$ 	c #67625C",
"% 	c #5B5952",
"& 	c #4F4C48",
"* 	c #807B6A",
"= 	c #A1A9A3",
"- 	c #89928C",
"; 	c #93968B",
"> 	c #9F9F8B",
", 	c #28221F",
"' 	c #666A62",
") 	c #383F40",
"! 	c #756F64",
"~ 	c #1B1B1A",
"{ 	c #2B201A",
"] 	c #0B0404",
"^ 	c #0C0505",
"/ 	c #412E21",
"( 	c #180F0C",
"_ 	c #4B4844",
": 	c #383531",
"< 	c #292523",
"[ 	c #26201D",
"} 	c #53514B",
"| 	c #33312D",
"1 	c #35312E",
"2 	c #353B3C",
"3 	c #323738",
"4 	c #2F2C29",
"5 	c #1D1E1F",
"6 	c #303536",
"7 	c #130C0B",
"8 	c #140D0C",
"9 	c #170606",
"0 	c #38261F",
"a 	c #251813",
"b 	c #1B120E",
"c 	c #31211A",
"d 	c #241710",
"e 	c #797564",
"f 	c #4D483A",
"g 	c #5F5A54",
"h 	c #0D0706",
"i 	c #444644",
"j 	c #88918B",
"k 	c #1E130F",
"l 	c #625D57",
"m 	c #413D39",
"n 	c #524E49",
"o 	c #736D59",
"p 	c #55544D",
"q 	c #130D0C",
"r 	c #25211F",
"s 	c #66615B",
"t 	c #433F36",
"u 	c #45413C",
"v 	c #625E50",
"w 	c #57554E",
"x 	c #0D0606",
"y 	c #24201C",
"z 	c #4D4A46",
"A 	c #312F2C",
"B 	c #1D1614",
"C 	c #393633",
"D 	c #232627",
"E 	c #363D3E",
"F 	c #140A08",
"G 	c #100D0D",
"H 	c #160F0E",
"I 	c #221814",
"J 	c #201612",
"K 	c #422E22",
"L 	c #373E3F",
"M 	c #141212",
"N 	c #191511",
"O 	c #8B8E84",
"P 	c #393732",
"Q 	c #3E3B37",
"R 	c #42443E",
"S 	c #353631",
"T 	c #4E4B47",
"U 	c #23201D",
"V 	c #110A09",
"W 	c #605B55",
"X 	c #4A4842",
"Y 	c #3F3B37",
"Z 	c #282522",
"` 	c #0D0605",
" .	c #5E5953",
"..	c #2F3435",
"+.	c #2C2926",
"@.	c #191412",
"#.	c #150E0D",
"$.	c #313738",
"%.	c #2C1D15",
"&.	c #33231C",
"*.	c #170F0C",
"=.	c #464239",
"-.	c #32221B",
";.	c #3F3B2F",
">.	c #56544D",
",.	c #5D5853",
"'.	c #160D0A",
").	c #1D1410",
"!.	c #3D3935",
"~.	c #6A6557",
"{.	c #5F5B55",
"].	c #0F0908",
"^.	c #343029",
"/.	c #423E3A",
"(.	c #514D48",
"_.	c #615D57",
":.	c #140E0D",
"<.	c #1C1816",
"[.	c #1B1513",
"}.	c #1E1816",
"|.	c #39271F",
"1.	c #0F0706",
"2.	c #100807",
"3.	c #2D211B",
"4.	c #514D42",
"5.	c #757B76",
"6.	c #423F3A",
"7.	c #76705B",
"8.	c #241F19",
"9.	c #201B17",
"0.	c #635E58",
"a.	c #5C5746",
"b.	c #46423E",
"c.	c #646861",
"d.	c #24201E",
"e.	c #292422",
"f.	c #51544D",
"g.	c #1A1918",
"h.	c #2E3334",
"i.	c #3C291E",
"j.	c #231610",
"k.	c #61645D",
"l.	c #6B6653",
". + . . @ @ . @ . . . . + + + + + . + . @ @ @ . @ . . . . . . . . + . + + + + . . . . . + + + + + . + . + + @ . @ . . . . . . . ",
"# $ % & & @ * = - * * # # * * * # $ % & & @ ; = - * * # # % * * # $ % & & . * = - ; ; # # # # # # $ % & + @ . * = > * * * % * * ",
"$ % $ % , . > ' $ $ $ $ # * $ $ $ % $ % , . > ' $ $ $ # ' * ' $ $ % $ % , + > ' $ $ $ # ' ' $ $ $ ' $ % , . @ ; ' $ $ $ # * ' $ ",
"$ $ % $ ) . * $ $ $ $ ' ' $ $ $ $ $ % $ ) + * $ $ $ # ' $ ' $ $ $ $ % $ ) . * $ $ $ # ' $ $ $ $ ' $ $ $ ) @ * * $ $ $ ' ' ' $ $ ",
"$ $ $ $ , . & % $ $ $ ! & $ $ $ $ $ $ $ , . & % $ $ $ ! & $ $ $ $ $ $ $ , + * $ $ * $ $ ' ! & & & % $ % , + $ % $ $ $ ! & $ $ $ ",
"$ $ $ % , . % $ $ $ $ & & $ $ $ $ $ $ % , . % $ $ ! & & & $ $ $ $ $ $ % , . % $ $ ! & & $ & % & $ $ % % , + % $ % $ $ & & $ $ $ ",
"& $ $ & , . % & & $ % ) ) $ $ & & $ $ & ~ . % & & & & & % $ $ & & $ $ & , . % & & & & % $ $ & $ & % $ & , + & % $ $ % ) ) $ $ & ",
") ) , , ) @ & , , , , , ) ) ) ) ) ) , ~ ) @ ~ , , , ) , ) ~ ~ , ) ) , , ) @ & , , , ) ) ) ) ) ) ) ) , , ) + & , ) , , , ) ) ) ) ",
"+ + . + . . + + . . + . + + { ] ] ] ] ] ] ] ^ / + @ . + + + + . . . . . . . + + + + ( ] ] ] ] ] + . + . . . . . . . . + . . . + ",
"* ; * * * * & * % & & & % % _ ] ] ] ] ] ] ] ] : % $ $ % & ) ) . * = > > * * * % % & < ] ] ] ] ] * = ; * * * * # # # # $ % & & @ ",
"* ' $ $ $ $ $ # * $ & % % $ [ ] ] ] ] ] ] ] ] ^ } ' % ' % & ~ + ; # # # $ $ # * $ $ < ] ] ] ] ] ; $ $ * ' $ ' ' $ $ $ ' $ % , . ",
"* $ $ # $ $ $ $ $ $ $ % $ % [ ] ] ] ] ] ] ] ] ] | % % % % % , . # $ # $ ' # $ $ $ $ 1 ] ] ] ] ] % % $ % $ $ $ $ $ $ ' $ $ $ ) @ ",
"& $ % $ $ $ $ % $ $ & % $ % 2 ] ] ] ] ] ] ] ] ] ] 3 ) & % & ~ . # ' ' $ ' $ $ $ $ $ 4 ] ] ] ] ] & $ % $ $ $ $ ! & % & % $ % , + ",
"& % $ % $ % $ $ $ % & $ % $ [ ] ] ] ] ] ] ] ] ] ] 5 % % & & ~ @ $ ' $ ' $ $ % $ $ % 1 ] ] ] ] ] & % $ % $ $ $ & % & $ $ % % , . ",
"& & % $ % $ % $ $ % & % % & [ ] ] ] ] ] ] ] ] ] ] ] 6 & % ) ~ . % $ $ $ $ & $ $ $ $ 1 ] ] ] ] ] & & % $ % $ $ $ & $ & % $ & , + ",
"& , , , ) ) ) ) ) ) ) , , ~ 2 ] ] ] ] ] 7 ] ] ] ] ] 8 , ~ ~ , @ . , ) , ) ) , ) 9 ) 5 ] ] ] ] ] & , , , ) , ) ) ) ) ) ) , , ) . ",
"+ + + + + . + . @ @ @ . @ . 0 ] ] ] ] ] a b ] ] ] ] ] c . . . . + + + + + . + . + + d ] ] ] ] ] . . . . . + . . @ @ . @ . . . . ",
"$ * # # $ % & ) & @ * = - * e ] ] ] ] ] f g h ] ] ] ] i j ; ; # # # # # # $ % & & @ k ] ] ] ] ] * % * * # $ % & & @ % > * * * $ ",
"$ # % % % & % & ~ . > ' $ $ l ] ] ] ] ] m % m ] ] ] ] ] n $ $ # ' ' $ $ $ ' $ % , . d ] ] ] ] ] # * ' $ $ % $ % , . * ' % % % % ",
"' % % % % % & % , + * $ $ $ o ] ] ] ] ] m $ p q ] ] ] ] r s # ' $ $ $ $ ' $ $ $ ) @ t ] ] ] ] ] ' ' $ $ $ $ % $ ) . # % % % % ' ",
") % % % % % % % ~ . & % $ $ l ] ] ] ] ] m $ $ u ] ] ] ] ] v $ $ ' ! & & & % $ % , + 1 ] ] ] ] ] & $ $ $ $ $ $ $ , . ) & % % % $ ",
") % % % % % % & ~ . % $ $ ! _ ] ] ] ] ] m $ $ w x ] ] ] ] y z & $ & % & $ $ % % , + 4 ] ] ] ] ] & $ $ $ $ $ $ % , . & % % % % ) ",
", % % ) ) % % ) ~ . % & & & _ ] ] ] ] ] A $ $ & B ] ] ] ] ] C % $ $ & $ & % $ & , + < ] ] ] ] ] ) $ $ & & $ $ & , . & ) ) % & , ",
", , , , , , ~ ~ , @ & , , , 2 ] ] ] ] ] D ) , , E F ] ] ] ] G E ) ) ) ) ) ) , , ) + H ] ] ] ] ] ) ) ) ) ) ) , , ) @ ) ~ ~ ~ ~ ~ ",
". + . . . . . . . . + . . . { ] ] ] ] ] a + + . . I ] ] ] ] ] J + . + . . + @ + @ . ( ] ] ] ] ] . . . . . + + + + + . + . . + + ",
"= ; * * * * # # # # $ % & & K ] ] ] ] ] f ) # % ) L M ] ] ] ] N O * * * * & $ $ # # 1 ] ] ] ] ] > * * * # # % % ) ) ) & & ) @ * ",
"$ $ * ' $ ' ' $ $ $ ' $ % , 0 ] ] ] ] ] P % $ # % ) Q ] ] ] ] ] R $ $ $ $ $ $ $ ' $ S ] ] ] ] ] $ $ $ % % $ # % % ) & % ) ~ @ ; ",
"% $ % $ $ $ $ $ $ ' $ $ $ ) K ] ] ] ] ] P % % % % % T U ] ] ] ] V W # $ $ $ $ $ $ $ 1 ] ] ] ] ] % $ % ' $ % % % % % % % ) ~ . % ",
"$ % $ $ $ $ ! & & & % $ % , { ] ] ] ] ] P % & % % ) & X ] ] ] ] ] Y $ $ $ $ $ & & & 4 ] ] ] ] ] ' ' % ' % % % % % & % % & ~ + & ",
"% $ % $ $ $ & % & $ $ % % , 0 ] ] ] ] ] A % % % & ) % & Z ] ] ] ] `  .$ $ $ % % & $ 1 ] ] ] ] ] ' % ' % % & % % & % % % % , + & ",
"& % $ % $ $ $ & $ & % $ & , { ] ] ] ] ] P & % % & ) & & ..] ] ] ] ] +.& & $ & & $ & 4 ] ] ] ] ] % % % % ) % % % % % % % % ~ + & ",
", , , ) , ) ) ) ) ) ) , , ) 0 ] ] ] ] ] @., , , , , ~ ~ ~ #.] ] ] ] ] $.) ) , ) ) ) 5 ] ] ] ] ] ~ , ~ , , ~ , 9 , , ~ ~ ~ , + & ",
"+ . . @ @ . @ . . . . + + + { ] ] ] ] ] %.@ . @ . . . . . &.] ] ] ] ] *.+ + . . . . k ] ] ] ] ] . + . + + @ . @ . . . . . . . . ",
"$ % & & @ # > * * * $ $ * # o ] ] ] ] ] %.; = - * * # # % * =.] ] ] ] ] -.* = - ; ; ;.] ] ] ] ] $ % & + @ . * = > * * * % * * # ",
"% $ % , . * ' % % % % $ # % >.] ] ] ] ] a > ' $ $ $ # ' * ' ,.` ] ] ] ] '.> ' $ $ $ ;.] ] ] ] ] ' $ % , . @ ; ' $ $ $ # * ' $ $ ",
"$ % $ ) . # % % % % ' ' % % >.] ] ] ] ] ).* $ $ $ # ' $ ' $ $ !.] ] ] ] ] ~.$ $ $ # S ] ] ] ] ] $ $ $ ) @ * * $ $ $ ' ' ' $ $ $ ",
"$ $ $ , . ) & % % % $ ) % % >.] ] ] ] ] a & % $ $ $ ! & $ $ $ {.].] ] ] ] ^.s $ * $ 1 ] ] ] ] ] % $ % , + $ % $ $ $ ! & $ $ $ $ ",
"$ $ % , . & % % % % ) ) % % >.] ] ] ] ] a % $ $ ! & & & $ $ $ $ /.] ] ] ] ] (.$ ! & < ] ] ] ] ] $ % % , + % $ % $ $ & & $ $ $ $ ",
"$ $ & , . & ) ) % & , , % % 2 ] ] ] ] ] a % & & & & & % $ $ & & _.:.] ] ] ] <.T & & 4 ] ] ] ] ] % $ & , + & % $ $ % ) ) $ $ & & ",
") , , ) @ ) ~ ~ ~ ~ ~ , , , [ ] ] ] ] ] %.~ , , , ) , ) ~ ~ , ) ) [.] ] ] ] ] }., ) 5 ] ] ] ] ] ) , , ) + & , ) , , , ) ) ) ) ) ",
"+ + + . + . . + + . . + . + { ] ] ] ] ] ).. . + @ + @ . + + + + . |.1.] ] ] ] 2.3.+ ( ] ] ] ] ] + + . + . . . . . . . . + . . . ",
"@ * ; * * * * & * % & & & % >.] ] ] ] ] 4.* * & $ $ # # $ % & & . * 5.] ] ] ] ] 6.% < ] ] ] ] ] @ * = ; * * * * # # # # $ % & & ",
". * ' $ $ $ $ $ # * $ & % % l ] ] ] ] ] m $ $ $ $ $ ' $ ' $ % , + ; 7.8.] ] ] ] 9.0.1 ] ] ] ] ] @ ; $ $ * ' $ ' ' $ $ $ ' $ % , ",
"@ * $ $ # $ $ $ $ $ $ $ % $ >.] ] ] ] ] f $ $ $ $ $ $ $ $ $ $ ) . # $ a.] ] ] ] ] b.1 ] ] ] ] ] . % % $ % $ $ $ $ $ $ ' $ $ $ ) ",
"+ & $ % $ $ $ $ % $ $ & % $ >.] ] ] ] ] m $ $ $ $ & % & % $ % , . # ' c.d.] ] ] ] :.e.] ] ] ] ] + & $ % $ $ $ $ ! & & & % $ % , ",
". & % $ % $ % $ $ $ % & $ % l ] ] ] ] ] m $ $ $ % % & $ $ % % , @ $ ' $ f.] ] ] ] ] ] ] ] ] ] ] + & % $ % $ $ $ & % & $ $ % % , ",
"+ & & % $ % $ % $ $ % & % % _ ] ] ] ] ] A & & $ & & $ & % $ & , . % $ $ s < ] ] ] ] ] ] ] ] ] ] + & & % $ % $ $ $ & $ & % $ & , ",
". & , , , ) ) ) ) ) ) ) , , g.] ] ] ] ] @.) ) ) , ) ) ) ) , , ) @ ) , ) , h.] ] ] ] ] ] ] ] ] ] + & , , , ) , ) ) ) ) ) ) , , ) ",
"+ + . + . @ @ @ . @ . . . . 0 ] ] ] ] ] ).+ + + . . . . . + + + + + . + . + '.] ] ] ] ] ] ] ] ] . . + . . @ @ . @ . . . . + + + ",
"* # $ % & % @ * = - * * # # >.] ] ] ] ] A & . * = - ; ; # # # # # # $ % & & i.] ] ] ] ] ] ] ] ] * $ % & ) ) @ ; = - * * # # * * ",
"$ $ % $ % , . > ' $ $ $ # ' e ] ] ] ] ] P , + > ' $ $ $ # ' ' $ $ $ ' $ % , . j.] ] ] ] ] ] ] ] % % & % & ~ . > ' $ $ $ $ # * $ ",
"$ $ $ % $ ) + * $ $ $ # ' $ k.] ] ] ] ] m ) . * $ $ $ # ' $ $ $ $ ' $ $ $ ) @ l.] ] ] ] ] ] ] ] % % % & % , . * $ $ $ $ ' ' $ $ ",
"$ $ $ $ $ , . & % $ $ $ ! & $ $ $ $ $ $ $ , + * $ $ * $ $ ' ! & % & % $ % , + % & % % % $ ) % % % % % % % ~ . & % $ $ $ ! & $ $ ",
"$ $ $ $ % , . % $ $ ! & & & $ $ $ $ $ $ % , . % $ $ ! & & $ & % & $ $ % % , + & % & % % ) ) % % % % % % & ~ . % $ $ $ $ & & $ $ ",
"& & $ $ & ~ . % & & & & & % $ $ & & $ $ & , . % & & & & % $ $ & $ & % $ & , + ) & % % & , , % % ) ) % % ) ~ . % & & $ % ) ) $ $ ",
") ) ) , ~ ) @ & , , , ) , ) ~ ~ , ) ) , , ) @ & , , , ) ) ) ) ) ) ) ) , , ) + ~ ~ , ~ ~ ~ , , , , , , ~ ~ , @ & , , , , , ) ) ) ",
". . . . + + + + + . + . . + + . + . . . . . . . . + . . . + + + . + . . + + . . + . + + + + + + . + . . + @ + @ . + + + + . . . ",
"> > * * * % % & & & % % & @ * = ; * * * * # # # # $ % & & @ * ; * * * * & * % & & & % % & @ # % # # # # ) % % $ $ % & ) ) . * = ",
"# # $ $ # * $ $ & % $ & , @ ; $ $ * ' $ ' ' $ $ $ ' $ % , . * ' $ $ $ $ $ # * $ & % % $ , . * ' % % % % % % % ' % ' % & ~ + ; # ",
"# $ ' # $ $ $ $ $ $ $ & , . % % $ % $ $ $ $ $ $ ' $ $ $ ) @ * $ $ # $ $ $ $ $ $ $ % $ % , @ # % % $ % % % % % % % % % % , . # $ ",
"' $ ' $ $ $ $ $ % $ $ % , + & $ % $ $ $ $ ! & & & % $ % , + & $ % $ $ $ $ % $ $ & % $ % ) . # ' % % % % % % ) ) ) & % & ~ . # ' ",
"$ ' $ $ % $ $ % $ $ $ $ ) + & % $ % $ $ $ & % & $ $ % % , . & % $ % $ % $ $ $ % & $ % $ , . & % % % % % % & & ) % % & & ~ @ $ ' ",
"$ $ $ & $ $ $ $ $ $ $ $ , + & & % $ % $ $ $ & $ & % $ & , + & & % $ % $ % $ $ % & % % & , . ) & % ) ) ) % ) ) % ) & % ) ~ . % $ ",
") , ) ) , ) 9 ) ) , , ~ ) + & , , , ) , ) ) ) ) ) ) , , ) . & , , , ) ) ) ) ) ) ) , , ~ ) @ , ~ , ~ , , , ~ , , , , ~ ~ , @ & , "};
