/* XPM */
static char * ouest_xpm[] = {
"64 64 263 2",
"  	c None",
". 	c #3B2921",
"+ 	c #2E221C",
"@ 	c #463124",
"# 	c #79735E",
"$ 	c #67625C",
"% 	c #5B5952",
"& 	c #4F4C48",
"* 	c #807B6A",
"= 	c #A1A9A3",
"- 	c #89928C",
"; 	c #93968B",
"> 	c #9F9F8B",
", 	c #28221F",
"' 	c #666A62",
") 	c #383F40",
"! 	c #756F64",
"~ 	c #1B1B1A",
"{ 	c #605B55",
"] 	c #0B0404",
"^ 	c #0E0605",
"/ 	c #76705C",
"( 	c #32221B",
"_ 	c #433F32",
": 	c #423E3A",
"< 	c #43453F",
"[ 	c #1F1C19",
"} 	c #686350",
"| 	c #291B15",
"1 	c #1A1513",
"2 	c #66615B",
"3 	c #292422",
"4 	c #413E3A",
"5 	c #3F3B37",
"6 	c #373432",
"7 	c #21140E",
"8 	c #514F49",
"9 	c #625D57",
"0 	c #635E58",
"a 	c #484640",
"b 	c #1C1D1D",
"c 	c #1B1A19",
"d 	c #0C0505",
"e 	c #4D4944",
"f 	c #4A4842",
"g 	c #2B2724",
"h 	c #251F1D",
"i 	c #0D0707",
"j 	c #1A1A19",
"k 	c #221C1A",
"l 	c #17110F",
"m 	c #170606",
"n 	c #242728",
"o 	c #252828",
"p 	c #190E0A",
"q 	c #33231C",
"r 	c #170F0C",
"s 	c #0F0706",
"t 	c #180E0B",
"u 	c #3A271D",
"v 	c #555A56",
"w 	c #413E39",
"x 	c #484943",
"y 	c #615C4B",
"z 	c #2B271F",
"A 	c #474440",
"B 	c #7A7565",
"C 	c #432F22",
"D 	c #514D48",
"E 	c #413D34",
"F 	c #65605A",
"G 	c #110A09",
"H 	c #605B56",
"I 	c #44423D",
"J 	c #55504B",
"K 	c #120C0B",
"L 	c #130E0D",
"M 	c #59544F",
"N 	c #231F1D",
"O 	c #514C48",
"P 	c #3A3633",
"Q 	c #443F3B",
"R 	c #595550",
"S 	c #5B574A",
"T 	c #48433C",
"U 	c #494642",
"V 	c #181412",
"W 	c #2B2725",
"X 	c #211B19",
"Y 	c #4A4641",
"Z 	c #3A3630",
"` 	c #3E3B38",
" .	c #201B19",
"..	c #241E1C",
"+.	c #26201D",
"@.	c #35312D",
"#.	c #4D4B47",
"$.	c #0F0908",
"%.	c #5F5A55",
"&.	c #2E2B28",
"*.	c #1E1816",
"=.	c #55514C",
"-.	c #221E1C",
";.	c #27211E",
">.	c #231D1A",
",.	c #131111",
"'.	c #2A2F30",
").	c #202223",
"!.	c #252829",
"~.	c #1A1412",
"{.	c #110907",
"].	c #211712",
"^.	c #1B120F",
"/.	c #35251D",
"(.	c #140A08",
"_.	c #1A0F0C",
":.	c #261B16",
"<.	c #2A1C14",
"[.	c #585343",
"}.	c #272422",
"|.	c #72746B",
"1.	c #15110F",
"2.	c #6E6855",
"3.	c #7B7666",
"4.	c #0D0706",
"5.	c #57554F",
"6.	c #2E1F19",
"7.	c #2F2C29",
"8.	c #4E4B47",
"9.	c #110C0A",
"0.	c #5D6159",
"a.	c #3A3632",
"b.	c #4F4A46",
"c.	c #56514C",
"d.	c #353027",
"e.	c #412D21",
"f.	c #130E0C",
"g.	c #5A5851",
"h.	c #4F4D47",
"i.	c #25211C",
"j.	c #4D4844",
"k.	c #3C3834",
"l.	c #45413D",
"m.	c #3C3A35",
"n.	c #141213",
"o.	c #504E47",
"p.	c #413F3A",
"q.	c #4A473C",
"r.	c #5C5752",
"s.	c #171211",
"t.	c #2D2E2A",
"u.	c #4C4943",
"v.	c #222525",
"w.	c #393633",
"x.	c #282523",
"y.	c #45433D",
"z.	c #15100E",
"A.	c #5E5954",
"B.	c #63665F",
"C.	c #2C3131",
"D.	c #302D29",
"E.	c #110A0A",
"F.	c #474441",
"G.	c #2A2624",
"H.	c #46443E",
"I.	c #4C4A44",
"J.	c #282521",
"K.	c #343A3B",
"L.	c #0D0605",
"M.	c #27221F",
"N.	c #181716",
"O.	c #130907",
"P.	c #1D1715",
"Q.	c #202324",
"R.	c #131110",
"S.	c #13100F",
"T.	c #150B09",
"U.	c #3E2B1F",
"V.	c #2A1C16",
"W.	c #211410",
"X.	c #130908",
"Y.	c #1B100D",
"Z.	c #3A281D",
"`.	c #373530",
" +	c #6C6E66",
".+	c #403C30",
"++	c #605C4F",
"@+	c #9EA6A0",
"#+	c #181615",
"$+	c #6F6956",
"%+	c #76705B",
"&+	c #0E0707",
"*+	c #0C0404",
"=+	c #39271F",
"-+	c #56564A",
";+	c #191410",
">+	c #332F2C",
",+	c #4F524B",
"'+	c #57524D",
")+	c #54524C",
"!+	c #1C1814",
"~+	c #6B6553",
"{+	c #171210",
"]+	c #484440",
"^+	c #3D3935",
"/+	c #464842",
"(+	c #2F1F16",
"_+	c #1E1B18",
":+	c #514E48",
"<+	c #4B4743",
"[+	c #373330",
"}+	c #58534E",
"|+	c #1F1E1B",
"1+	c #25211F",
"2+	c #4C4843",
"3+	c #2A2724",
"4+	c #4D4A46",
"5+	c #2C201B",
"6+	c #474540",
"7+	c #2A2725",
"8+	c #130D0C",
"9+	c #5B5651",
"0+	c #504C47",
"a+	c #130C0B",
"b+	c #191918",
"c+	c #0D0606",
"d+	c #241E1B",
"e+	c #1B1613",
"f+	c #212425",
"g+	c #272A2B",
"h+	c #26292A",
"i+	c #291E18",
"j+	c #332319",
"k+	c #180F0C",
"l+	c #1C110D",
"m+	c #5A5B54",
"n+	c #3A3734",
"o+	c #383431",
"p+	c #58564F",
"q+	c #525049",
"r+	c #0E0807",
"s+	c #0F0909",
"t+	c #8E9186",
"u+	c #50534C",
"v+	c #595C55",
"w+	c #2C2826",
"x+	c #3B3733",
"y+	c #2E2A27",
"z+	c #44403C",
"A+	c #3D3B36",
"B+	c #221D1B",
"C+	c #56524D",
"D+	c #3E3A36",
"E+	c #625D58",
"F+	c #44413D",
"G+	c #282421",
"H+	c #23201E",
"I+	c #0C0606",
"J+	c #373D3E",
"K+	c #232627",
"L+	c #35322F",
"M+	c #2F2019",
"N+	c #31211B",
". + . . @ @ . @ . . . . + + + + + . + . @ @ @ . @ . . . . . . . . + . + + + + . . . . . + + + + + . + . + + @ . @ . . . . . . . ",
"# $ % & & @ * = - * * # # * * * # $ % & & @ ; = - * * # # % * * # $ % & & . * = - ; ; # # # # # # $ % & + @ . * = > * * * % * * ",
"$ % $ % , . > ' $ $ $ $ # * $ $ $ % $ % , . > ' $ $ $ # ' * ' $ $ % $ % , + > ' $ $ $ # ' ' $ $ $ ' $ % , . @ ; ' $ $ $ # * ' $ ",
"$ $ % $ ) . * $ $ $ $ ' ' $ $ $ $ $ % $ ) + * $ $ $ # ' $ ' $ $ $ $ % $ ) . * $ $ $ # ' $ $ $ $ ' $ $ $ ) @ * * $ $ $ ' ' ' $ $ ",
"$ $ $ $ , . & % $ $ $ ! & $ $ $ $ $ $ $ , . & % $ $ $ ! & $ $ $ $ $ $ $ , + * $ $ * $ $ ' ! & & & % $ % , + $ % $ $ $ ! & $ $ $ ",
"$ $ $ % , . % $ $ $ $ & & $ $ $ $ $ $ % , . % $ $ ! & & & $ $ $ $ $ $ % , . % $ $ ! & & $ & % & $ $ % % , + % $ % $ $ & & $ $ $ ",
"& $ $ & , . % & & $ % ) ) $ $ & & $ $ & ~ . % & & & & & % $ $ & & $ $ & , . % & & & & % $ $ & $ & % $ & , + & % $ $ % ) ) $ $ & ",
") ) , , ) @ & , , , , , ) ) ) ) ) ) , ~ ) @ ~ , , , ) , ) ~ ~ , ) ) , , ) @ & , , , ) ) ) ) ) ) ) ) , , ) + & , ) , , , ) ) ) ) ",
"+ + . + . . + + . . + . + + + + + + . + . . + @ + @ . + + + + . . . . . . . + + + + + . + . . + + . + . . . . . . . . + . . . + ",
"* ; * * * * & * % & & & % % & @ # * # # # # ) % % $ $ % & ) ) . * = > > * * * % % & & & % % @ @ * = ; * * * * # # # # $ % & & @ ",
"* ' $ $ $ $ $ # * $ & % % $ , . * ' % % % % % % % ' % ' % & ~ + ; # # # $ $ # * $ $ & % $ & , @ ; $ $ * ' $ ' ' $ $ $ ' $ % , . ",
"* $ $ # $ $ $ $ $ $ { ] ] ] ] ^ / % % $ % % % % % % % % % % , ( ] ] ] ] ] _ $ $ $ $ $ $ $ & , . % % $ % $ : ] ] ] ] < $ $ $ ) @ ",
"& $ % $ $ $ $ % $ $ & [ ] ] ] ] } ' % % % % % % ) ) ) & % & ~ | ] ] ] ] ] 1 2 $ $ $ % $ $ % , + & $ % $ $ 3 ] ] ] ] 4 % $ % , + ",
"& % $ % $ % $ $ $ % & 5 ] ] ] ] 6 % % % % % % & & ) % % & & ~ 7 ] ] ] ] ] ] 8 $ $ % $ $ $ $ ) + & % $ % 9 ] ] ] ] ] 0 $ % % , . ",
"& & % $ % $ % $ $ % & a ] ] ] ] b & % ) ) ) % ) ) % ) & % ) c d ] ] ] ] ] ] e $ $ $ $ $ $ $ , + & & % $ f ] ] ] ] g & % $ & , + ",
"& , , , ) ) ) ) ) ) ) h ] ] ] ] i j , ~ , , , ~ , , , , ~ ~ k ] ] ] ] ] ] ] l ) m ) ) , , ~ ) + & , , , n ] ] ] ] o ) ) , , ) . ",
"+ + + + + . + . @ @ @ . p ] ] ] ] q . . . + . + + + + . . . | ] ] ] r ] ] ] s . + + @ . @ . . . . . . . t ] ] ] ] u . @ . . . . ",
"$ * # # $ % & ) & @ * = v ] ] ] ] w * * # $ % & & . * = - ; x ] ] ] y z ] ] ] A & @ . * = > * * * % * B ] ] ] ] ] C % > * * * $ ",
"$ # % % % & % & ~ . > ' D ] ] ] ] E ' $ $ % $ % , + > ' $ F G ] ] ] H 5 ] ] ] I , . @ ; ' $ $ $ # * ' J ] ] ] ] K . * ' % % % % ",
"' % % % % % & % , + * $ { ] ] ] ] L F $ $ $ % $ ) . * $ $ M ] ] ] N $ O ] ] ] P ) @ * * $ $ $ ' ' ' $ Q ] ] ] ] o . # % % % % ' ",
") % % % % % % % ~ . & % $ N ] ] ] ] R $ $ $ $ $ , + * $ $ S ] ] ] T & U ] ] ] V , + $ % $ $ $ ! & $ $ W ] ] ] ] X . ) & % % % $ ",
") % % % % % % & ~ . % $ $ T ] ] ] ] Y $ $ $ $ % , . % $ $ Z ] ] ] ` % &  .] ] ] ..+ % $ % $ $ & & $ 0 ] ] ] ] ] +.. & % % % % ) ",
", % % ) ) % % ) ~ . % & & ` ] ] ] ] @.& & $ $ & , . % & #.$.] ] ] %.& $ &.] ] ] *.+ & % $ $ % ) ) $ =.] ] ] ] -., . & ) ) % & , ",
", , , , , , ~ ~ , @ & , , h ] ] ] ] d ;.) ) , , ) @ & , >.] ] ] ,.) ) ) '.] ] ] ).+ , , ) , , , ) ) !.] ] ] ] ~.) @ ) ~ ~ ~ ~ ~ ",
". + . . . . . . . . + . . . {.] ] ] ] q . + + . . + . + ].] ] ] ^.. + . /.] ] ] (.. + + + + . . . . _.] ] ] ] :.+ + . + . . + + ",
"= ; * * * * # # # # $ % & & <.] ] ] ] [.# ) # % ) ) ) & }.] ] ] |.* * * * 1.] ] ] 2.$ % & & . # > 3.4.] ] ] d 5.) ) ) & & ) @ * ",
"$ $ * ' $ ' ' $ $ $ ' $ % , 6.] ] ] ] 7.% % $ # % ) & 8.9.] ] ] 0.$ $ $ $ a.] ] ] b.' $ % , + % $ c.] ] ] ] d.% % ) & % ) ~ @ ; ",
"% $ % $ $ $ $ $ $ ' $ $ $ ) e.] ] ] ] f.g.% % % % % & h.] ] ] i.$ $ # $ $ j.] ] ] k.$ $ $ ) . $ % l.] ] ] ] m.% % % % % ) ~ . % ",
"$ % $ $ $ $ ! & & & % $ % , + n.] ] ] ] o.% & % % ) & p.] ] ] q.' $ $ $ $ r.] ] ] s.% $ % , . $ ' t.] ] ] ] u.% % & % % & ~ + & ",
"% $ % $ $ $ & % & $ $ % % , . v.] ] ] ] w.% % % & ) % x.] ] ] y.$ $ $ $ $ 2 z.] ] ] A.% % , @ % B.d ] ] ] d 5.% & % % % % , + & ",
"& % $ % $ $ $ & $ & % $ & , + C.] ] ] ] D.& % % & ) 8.E.] ] ] F.% $ & & & $ G.] ] ] H.$ & , . & I.] ] ] ] J.% % % % % % % ~ + & ",
", , , ) , ) ) ) ) ) ) , , ) . K.] ] ] ] L.M., , , , N.] ] ] O.) , ) , ) ) ) P.] ] ] Q., , ) @ ) R.] ] ] ] S., m , , ~ ~ ~ , + & ",
"+ . . @ @ . @ . . . . + + + + + T.] ] ] ] U.. @ . . V.] ] ] W.. + . + + + + q ] ] ] X.+ + + + + Y.] ] ] ] Z.. @ . . . . . . . . ",
"$ % & & @ # > * * * $ $ * # # $ `.] ] ] ]  += - * * .+] ] ] ++# $ % & & . * @+#+] ] ] $+# # # %+&+] ] ] *+=+* = > * * * % * * # ",
"% $ % , . * ' % % % % $ # % % % ` ] ] ] ] -+' $ $ 2 ;+] ] ] r.$ % $ % , + > ' >+] ] ] ,+' $ $ '+] ] ] ] _.@ ; ' $ $ $ # * ' $ $ ",
"$ % $ ) . # % % % % ' ' % % % % )+] ] ] ] !+2 $ $ ~+] ] ] {+2 $ $ % $ ) . * $ ]+] ] ] ^+$ $ $ /+] ] ] ] (+* * $ $ $ ' ' ' $ $ $ ",
"$ $ $ , . ) & % % % $ ) % % % % % _+] ] ] ] :+$ $ <+] ] ] [+$ $ $ $ $ , + * $ }+] ] ] |+! & % 1+] ] ] ] :.$ % $ $ $ ! & $ $ $ $ ",
"$ $ % , . & % % % % ) ) % % % % % `.] ] ] ] 2+$ ! 3+] ] ] <+$ $ $ $ % , . % $ F G ] ] ] U % 4+$.] ] ] ] 5+% $ % $ $ & & $ $ $ $ ",
"$ $ & , . & ) ) % & , , % % ) ) % 6+] ] ] ] 7+& 8.8+] ] ] 9+& & $ $ & , . % & & 1+] ] ] 0+& }+] ] ] ] a++ & % $ $ % ) ) $ $ & & ",
") , , ) @ ) ~ ~ ~ ~ ~ , , , , , , b+] ] ] ] c+, d+] ] ] d ~ , ) ) , , ) @ & , , e+] ] ] f+) g+] ] ] ] h++ & , ) , , , ) ) ) ) ) ",
"+ + + . + . . + + . . + . + + + + + {.] ] ] ] i+j+] ] ] k++ + + . . . . . . . + :.] ] ] (.+ l+] ] ] ] :.. . . . . . . . + . . . ",
"@ * ; * * * * & * % & & & % % & @ * m+] ] ] ] n+o+] ] ] Y % & & . * = > > * * * p+d ] ] ] q+r+] ] ] s+t+* * * * # # # # $ % & & ",
". * ' $ $ $ $ $ # * $ & % % $ , . * u+] ] ] ] [+V ] ] ] v+$ % , + ; # # # $ $ # * w+] ] ] x+] ] ] ] y+$ * ' $ ' ' $ $ $ ' $ % , ",
"@ * $ $ # $ $ $ $ $ $ $ % $ % , @ * %.] ] ] ] ] ] ] ] K F $ $ ) . # $ # $ ' # $ $ z+] ] ] ] ] ] ] ] A+$ % $ $ $ $ $ $ ' $ $ $ ) ",
"+ & $ % $ $ $ $ % $ $ & % $ % ) . * ' B+] ] ] ] ] ] ] }.% $ % , . # ' ' $ ' $ $ $ J ] ] ] ] ] ] ] ] C+% $ $ $ $ ! & & & % $ % , ",
". & % $ % $ % $ $ $ % & $ % $ , . % $ D+] ] ] ] ] ] ] ]+$ % % , @ $ ' $ ' $ $ % $ E+] ] ] ] ] ] ] d p+$ % $ $ $ & % & $ $ % % , ",
"+ & & % $ % $ % $ $ % & % % & , . & % O ] ] ] ] ] ] ] F+% $ & , . % $ $ $ $ & $ $ $ G+] ] ] ] ] ] H+& % $ % $ $ $ & $ & % $ & , ",
". & , , , ) ) ) ) ) ) ) , , ~ ) @ & , K.] ] ] ] ] ] I+J+) , , ) @ ) , ) , ) ) , ) m K+] ] ] ] ] ] L+, , , ) , ) ) ) ) ) ) , , ) ",
"+ + . + . @ @ @ . @ . . . . . . . . + . {.] ] ] ] ] l+. . + + + + + . + . + + @ . @ M+] ] ] ] ] ] N++ . . @ @ . @ . . . . + + + ",
"* # $ % & % @ * = - * * # # % * * # $ % & & . * = - ; ; # # # # # # $ % & & @ . # > * # # # & * * $ % & ) ) @ ; = - * * # # * * ",
"$ $ % $ % , . > ' $ $ $ # ' * ' $ $ % $ % , + > ' $ $ $ # ' ' $ $ $ ' $ % , . @ % ' % % % $ * ' % % & % & ~ . > ' $ $ $ $ # * $ ",
"$ $ $ % $ ) + * $ $ $ # ' $ ' $ $ $ $ % $ ) . * $ $ $ # ' $ $ $ $ ' $ $ $ ) @ # * % % % ' ' ' % % % % & % , . * $ $ $ $ ' ' $ $ ",
"$ $ $ $ $ , . & % $ $ $ ! & $ $ $ $ $ $ $ , + * $ $ * $ $ ' ! & % & % $ % , + % & % % % $ ) % % % % % % % ~ . & % $ $ $ ! & $ $ ",
"$ $ $ $ % , . % $ $ ! & & & $ $ $ $ $ $ % , . % $ $ ! & & $ & % & $ $ % % , + & % & % % ) ) % % % % % % & ~ . % $ $ $ $ & & $ $ ",
"& & $ $ & ~ . % & & & & & % $ $ & & $ $ & , . % & & & & % $ $ & $ & % $ & , + ) & % % & , , % % ) ) % % ) ~ . % & & $ % ) ) $ $ ",
") ) ) , ~ ) @ & , , , ) , ) ~ ~ , ) ) , , ) @ & , , , ) ) ) ) ) ) ) ) , , ) + ~ ~ , ~ ~ ~ , , , , , , ~ ~ , @ & , , , , , ) ) ) ",
". . . . + + + + + . + . . + + . + . . . . . . . . + . . . + + + . + . . + + . . + . + + + + + + . + . . + @ + @ . + + + + . . . ",
"> > * * * % % & & & % % & @ * = ; * * * * # # # # $ % & & @ * ; * * * * & * % & & & % % & @ # % # # # # ) % % $ $ % & ) ) . * = ",
"# # $ $ # * $ $ & % $ & , @ ; $ $ * ' $ ' ' $ $ $ ' $ % , . * ' $ $ $ $ $ # * $ & % % $ , . * ' % % % % % % % ' % ' % & ~ + ; # ",
"# $ ' # $ $ $ $ $ $ $ & , . % % $ % $ $ $ $ $ $ ' $ $ $ ) @ * $ $ # $ $ $ $ $ $ $ % $ % , @ # % % $ % % % % % % % % % % , . # $ ",
"' $ ' $ $ $ $ $ % $ $ % , + & $ % $ $ $ $ ! & & & % $ % , + & $ % $ $ $ $ % $ $ & % $ % ) . # ' % % % % % % ) ) ) & % & ~ . # ' ",
"$ ' $ $ % $ $ % $ $ $ $ ) + & % $ % $ $ $ & % & $ $ % % , . & % $ % $ % $ $ $ % & $ % $ , . & % % % % % % & & ) % % & & ~ @ $ ' ",
"$ $ $ & $ $ $ $ $ $ $ $ , + & & % $ % $ $ $ & $ & % $ & , + & & % $ % $ % $ $ % & % % & , . ) & % ) ) ) % ) ) % ) & % ) ~ . % $ ",
") , ) ) , ) m ) ) , , ~ ) + & , , , ) , ) ) ) ) ) ) , , ) . & , , , ) ) ) ) ) ) ) , , ~ ) @ , ~ , ~ , , , ~ , , , , ~ ~ , @ & , "};
